/* XPM */
static char *_0c70a46026045c9b1b2490bd9123bd9[] = {
/* columns rows colors chars-per-pixel */
"16 16 2 1 ",
"  c #136E75",
". c None",
/* pixels */
"................",
"   ..........   ",
".   ........   .",
".     ....     .",
"...    ..    ...",
".....      .....",
"................",
"........ .......",
".......  .......",
".......  .......",
".......  .......",
".......  .......",
".......  .......",
".......  .......",
"................",
"................"
};
