/* XPM */
static char *_9483bb82c8e4953ae56346d35332031[] = {
/* columns rows colors chars-per-pixel */
"32 32 2 1 ",
"  c #136E75",
". c None",
/* pixels */
"................................",
"...  ......................  ...",
"      ....................      ",
".       ................       .",
"...       ............       ...",
"...        ..........        ...",
"...          ......          ...",
"....         ......         ....",
"......       ......       ......",
"........       ..       ........",
"......... . ..     . . .........",
"........... ...  ... ...........",
"...............  ...............",
"...............  ...............",
"...............  ...............",
"...............    .............",
"..............    ..............",
"..............     .............",
"..............    ..............",
"..............     .............",
"..............    ..............",
"..............     .............",
"..............    ..............",
"..............     .............",
"..............    ..............",
"..............     .............",
".............    ...............",
"...............  ...............",
"...............  ...............",
"...............  ...............",
"................................",
"................................"
};
