/* XPM */
static char *pyloncoin64[] = {
/* columns rows colors chars-per-pixel */
"64 64 248 2 ",
"   c #283579",
".  c #293579",
"X  c #C18A00",
"o  c #C18B00",
"O  c #C28C00",
"+  c #C38E00",
"@  c #C58F00",
"#  c #C59200",
"$  c #C69300",
"%  c #C69400",
"&  c #C79400",
"*  c #C79500",
"=  c #C79501",
"-  c #C79600",
";  c #C69404",
":  c #C79504",
">  c #C79604",
",  c #C89600",
"<  c #C89700",
"1  c #C89601",
"2  c #C89701",
"3  c #C89702",
"4  c #C89603",
"5  c #C89800",
"6  c #C89801",
"7  c #C99802",
"8  c #C89803",
"9  c #C99803",
"0  c #C89804",
"q  c #C89904",
"w  c #C99904",
"e  c #C89805",
"r  c #C99905",
"t  c #C99A05",
"y  c #C99A06",
"u  c #CA9A06",
"i  c #CA9A07",
"p  c #CA9B07",
"a  c #C99A08",
"s  c #CA9B08",
"d  c #CA9B09",
"f  c #CA9C0B",
"g  c #CB9C0B",
"h  c #CA9B0C",
"j  c #CB9C0D",
"k  c #CB9D0E",
"l  c #CC9D13",
"z  c #CC9E14",
"x  c #CDA016",
"c  c #CEA21A",
"v  c #CEA11C",
"b  c #CEA31C",
"n  c #CEA21E",
"m  c #CFA524",
"M  c #D0A524",
"N  c #D0A726",
"B  c #D0A727",
"V  c #D2A930",
"C  c #D2AB30",
"Z  c #D3AB31",
"A  c #D5AF39",
"S  c #D4AF3D",
"D  c #D5B03E",
"F  c #E8BD30",
"G  c #E8BF35",
"H  c #E8C038",
"J  c #E8C13C",
"K  c #E9C13C",
"L  c #E8C13D",
"P  c #E9C13D",
"I  c #E9C13E",
"U  c #E9C23E",
"Y  c #E9C23F",
"T  c #D6B141",
"R  c #D6B143",
"E  c #D7B344",
"W  c #D7B345",
"Q  c #D7B346",
"!  c #D9B74F",
"~  c #DAB851",
"^  c #DAB954",
"/  c #DAB956",
"(  c #DBBA56",
")  c #DAB85A",
"_  c #DCBE5E",
"`  c #DDBF60",
"'  c #DDBF61",
"]  c #E9C240",
"[  c #E9C241",
"{  c #E9C341",
"}  c #E9C342",
"|  c #E9C343",
" . c #E9C344",
".. c #E9C444",
"X. c #EAC445",
"o. c #E9C447",
"O. c #EAC446",
"+. c #EAC447",
"@. c #E9C449",
"#. c #E9C549",
"$. c #EAC448",
"%. c #EAC548",
"&. c #EAC549",
"*. c #EAC54A",
"=. c #EAC64A",
"-. c #EAC64B",
";. c #EAC64C",
":. c #EAC64D",
">. c #EBC74E",
",. c #EAC74F",
"<. c #EBC74F",
"1. c #EBC750",
"2. c #EBC852",
"3. c #EBC853",
"4. c #EBC955",
"5. c #EBC957",
"6. c #ECC956",
"7. c #ECCA57",
"8. c #ECCB5D",
"9. c #EDCD61",
"0. c #EDCD62",
"q. c #EDCD63",
"w. c #EDCE66",
"e. c #EDCF67",
"r. c #E0C46D",
"t. c #E0C46F",
"y. c #EECF6A",
"u. c #EED06A",
"i. c #EED06C",
"p. c #EED16E",
"a. c #E1C674",
"s. c #E1C774",
"d. c #E2C878",
"f. c #E2C87D",
"g. c #E3CA7E",
"h. c #EFD272",
"j. c #EFD375",
"k. c #EFD376",
"l. c #EFD477",
"z. c #EFD478",
"x. c #F0D57A",
"c. c #F0D57B",
"v. c #F0D57C",
"b. c #E3CB80",
"n. c #E3CA82",
"m. c #E4CC81",
"M. c #E5CD84",
"N. c #F1D782",
"B. c #F1D783",
"V. c #F1D988",
"C. c #F1DA8A",
"Z. c #F2DA8B",
"A. c #F2DB8D",
"S. c #F2DB8F",
"D. c #E7D290",
"F. c #E8D391",
"G. c #E8D497",
"H. c #E9D597",
"J. c #E9D69C",
"K. c #EAD79D",
"L. c #F3DD96",
"P. c #F3DE97",
"I. c #F3DE98",
"U. c #F3DF9B",
"Y. c #F4DF9B",
"T. c #F4DF9D",
"R. c #F4E09F",
"E. c #EAD8A1",
"W. c #EBD9A1",
"Q. c #EBDAA6",
"!. c #ECDAA5",
"~. c #EDDDAA",
"^. c #EDDDAB",
"/. c #EDDDAC",
"(. c #EDDEAD",
"). c #EEDFB1",
"_. c #F4E1A0",
"`. c #F4E1A1",
"'. c #F5E3A7",
"]. c #F5E3A8",
"[. c #F6E5AE",
"{. c #EFE0B3",
"}. c #EFE1B4",
"|. c #EFE1B6",
" X c #F6E7B4",
".X c #F7E8B7",
"XX c #F0E3B9",
"oX c #F1E4BD",
"OX c #F1E5BE",
"+X c #F1E5BF",
"@X c #F7E8B8",
"#X c #F8EABF",
"$X c #F8EBBF",
"%X c #F2E7C3",
"&X c #F2E7C5",
"*X c #F3E7C5",
"=X c #F8EBC0",
"-X c #F8ECC2",
";X c #F8EDC6",
":X c #F3E9C8",
">X c #F5EBCD",
",X c #F9EECA",
"<X c #FAF0CE",
"1X c #F6EED5",
"2X c #FAF1D2",
"3X c #FAF1D4",
"4X c #F7F1DC",
"5X c #FBF3D8",
"6X c #FBF3DA",
"7X c #FBF4DC",
"8X c #F8F2E0",
"9X c #FCF6E3",
"0X c #F9F4E4",
"qX c #FAF5E7",
"wX c #FCF6E5",
"eX c #FCF7E6",
"rX c #FAF5E8",
"tX c #FAF6E8",
"yX c #FBF7EC",
"uX c #FDF8E9",
"iX c #FDF8EA",
"pX c #FDF9EC",
"aX c #FCF9EF",
"sX c #FDFAF0",
"dX c #FDFBF1",
"fX c #FDFBF2",
"gX c #FEFBF2",
"hX c #FEFBF3",
"jX c #FEFBF4",
"kX c #FEFCF4",
"lX c #FEFCF5",
"zX c #FDFCF7",
"xX c #FEFCF7",
"cX c #FEFCF8",
"vX c #FEFDF9",
"bX c #FEFDFA",
"nX c #FEFDFB",
"mX c #FEFEFB",
"MX c #FFFEFB",
"NX c #FEFEFC",
"BX c #FFFEFC",
"VX c #FEFEFD",
"CX c #FFFEFD",
"ZX c #FFFFFD",
"AX c #FFFEFE",
"SX c #FFFFFE",
"DX c gray100",
"FX c None",
/* pixels */
"FXFXFXFXFXFXFXFXFXFXFXFXFXFXFXFXFXFXFXFXFXFXFXFXFXFXFX                    FXFXFXFXFXFXFXFXFXFXFXFXFXFXFXFXFXFXFXFXFXFXFXFXFXFXFX",
"FXFXFXFXFXFXFXFXFXFXFXFXFXFXFXFXFXFXFXFXFXFXFX                                    FXFXFXFXFXFXFXFXFXFXFXFXFXFXFXFXFXFXFXFXFXFXFX",
"FXFXFXFXFXFXFXFXFXFXFXFXFXFXFXFXFXFXFXFX            FXFXFXFXFXFXFXFXFXFXFXFX            FXFXFXFXFXFXFXFXFXFXFXFXFXFXFXFXFXFXFXFX",
"FXFXFXFXFXFXFXFXFXFXFXFXFXFXFXFXFXFX        FXFXFXFXFXFXFXFXFXFXFXFXFXFXFXFXFXFXFXFX        FXFXFXFXFXFXFXFXFXFXFXFXFXFXFXFXFXFX",
"FXFXFXFXFXFXFXFXFXFXFXFXFXFXFXFX        FXFXFXFXFXFXFXFXFXFX&.&.&.&.FXFXFXFXFXFXFXFXFXFX        FXFXFXFXFXFXFXFXFXFXFXFXFXFXFXFX",
"FXFXFXFXFXFXFXFXFXFXFXFXFXFX        FXFXFXFXFXFX&.&.&.&.&.&.&.&.&.&.&.&.&.&.&.&.FXFXFXFXFXFX        FXFXFXFXFXFXFXFXFXFXFXFXFXFX",
"FXFXFXFXFXFXFXFXFXFXFXFXFX      FXFXFXFXFXFX&.&.&.&.&.&.&.&.&.&.&.&.&.&.&.&.&.&.&.&.&.FXFXFXFXFX      FXFXFXFXFXFXFXFXFXFXFXFXFX",
"FXFXFXFXFXFXFXFXFXFXFXFX    FXFXFXFXFX&.&.&.&.&.&.&.&.&.&.&.&.&.&.&.&.&.&.&.&.&.&.&.+.| H FXFXFXFXFX    FXFXFXFXFXFXFXFXFXFXFXFX",
"FXFXFXFXFXFXFXFXFXFX      FXFXFXFXFX&.&.&.&.&.&.&.&.&.&.&.&.&.&.&.&.&.&.&.&.&...Y &.9.k.k.z.FXFXFXFXFX      FXFXFXFXFXFXFXFXFXFX",
"FXFXFXFXFXFXFXFXFX      FXFXFXFX&.&.&.&.&.&.&.&.&.&.&.&.&.&.&.&.&.&.&.&.;...Y w. XuXDXDXDXDXMXDXFXFXFXFX      FXFXFXFXFXFXFXFXFX",
"FXFXFXFXFXFXFXFX      FXFXFXFX&.&.&.&.&.&.&.&.&.&.&.&.&.&.&.&.&.&.&.&.;.| 5.#XDXDXDXDXMXDXDXDXDXDXFXFXFXFX      FXFXFXFXFXFXFXFX",
"FXFXFXFXFXFXFXFX    FXFXFXFX&.&.&.&.&.&.&.&.&.&.&.&.&.&.&.&.&.&.&.&.;.Y z.dXDXDXMXDXDXDXDXDXDXDXDXrXv FXFXFX    FXFXFXFXFXFXFXFX",
"FXFXFXFXFXFXFX    FXFXFXFX&.&.&.&.&.&.&.&.&.&.&.&.&.&.&.&.&.&.&.&.;.Y V.DXDXMXDXDXDXrX>XDXDXDXDXDXDX! + FXFXFX    FXFXFXFXFXFXFX",
"FXFXFXFXFXFX    FXFXFXFX&.&.&.&.&.&.&.&.&.&.&.&.&.&.&.&.&.&.&.&.&.Y v.DXDXMXDXDXMXDX! G.DXMXDXDXMXDX` $ j FXFXFX    FXFXFXFXFXFX",
"FXFXFXFXFX    FXFXFXFX&.&.&.&.&.&.&.&.&.&.&.&.&.&.&.&.&.&.&.&.;.+.9.sXDXMXDXDXMXDX/.X D.DXlXDXbXDXMXm - w FXFXFXFX    FXFXFXFXFX",
"FXFXFXFXFX    FXFXFX&.&.&.&.&.&.&.&.&.&.&.&.&.&.&.&.&.&.&.&.&...+.2XDXDXDXDXDXDXbXV $ m 0XDXDXMXDXn.- w w w FXFXFX    FXFXFXFXFX",
"FXFXFXFX    FXFXFX&.&.&.&.&.&.&.&.&.&.&.&.&.&.&.$.:.$.$.-.$.;.Y I.DXDXDXDXDXDXDXQ.$ a 2 v D.*XXX( - w w w w w FXFXFX    FXFXFXFX",
"FXFXFXFX    FXFXFX&.&.&.&.&.&.&.&.&.&.&.&.&.&.&.$.$.$.-.$.-...8.lXDXDXDXDXDXDXDXR 2 w a 4 $ - - $ w w w w w w FXFXFX    FXFXFXFX",
"FXFXFX    FXFXFX&.&.&.&.&.&.&.&.&.&.&.&.&.&.&.&.$.:.&.;.-.;.Y .XDXMXDXDXDXbXDX1Xa a w w a a a a a w w w w w w w FXFXFX    FXFXFX",
"FXFXFX    FXFX&.&.&.&.&.&.&.&.&.&.&.&.&.&.&.&.&.$.$.....$.| 9.MXDXDXDXDXDXbXDXn.X 4 8 w w w w w w w w w w w w w w FXFX    FXFXFX",
"FXFX    FXFXFX&.&.&.&.&.&.&.&.&.&.&.&.&.&.&.&.| +.6.6.6.5.$.[.DXDXDXDXDXDXDXDXt.A R b - w w w w w w w w w w w w w FXFXFX    FXFX",
"FXFX    FXFX&.&.&.&.&.&.&.&.&.&.&.&.&.&.&.;...u.7XsXsXsXsXsXMXDXDXDXDXDXDXDXDXDXDXDXMXd.- w w w w w w w w w w w w w FXFX    FXFX",
"FXFX  FXFXFX&.&.&.&.&.&.&.&.&.&.&.&.&.&.&.&...6XDXDXDXDXDXDXDXDXDXDXDXDXDXDXDXDXMXDXDXDXZ 2 a w w w w w w w w w w w FXFXFX  FXFX",
"FX    FXFXFX&.&.&.&.&.&.&.&.&.&.&.&.&.&.;...1.sXDXMXMXDXDXDXDXDXDXDXDXDXDXDXbXMXMXbXMXDXQ - w w w w w w w w w w w w FXFXFX    FX",
"FX    FXFX&.&.&.&.&.&.&.&.&.&.&.&.&.&.&.&.;.| =XDXDXDXDXDXDXDXDXDXDXDXDXDXDXDXDXDXDXDX:Xa 8 w w w w w w w w w w w w w FXFX    FX",
"FX    FXFX&.&.&.&.&.&.&.&.&.&.&.&.&.&.&.&.&...;.].7X9X9X9XDXDXDXDXDXDXDXDXaXoXoX|./.b.l 2 w w w w w w w w w w w w w w FXFX    FX",
"FX  FXFXFX&.&.&.&.&.&.&.&.&.&.&.&.&.&.&.&.&.&.&.Y +.;.$.w.DXDXDXDXDXDXbXDXJ.+ w - $ $ w w w w w w w w w w w w w w w w FXFXFX  FX",
"    FXFXFX&.&.&.&.&.&.&.&.&.&.&.&.&.&.&.&.&.| Y Y Y | F B.DXMXDXDXDXDXbXDX) + ; $ a a w w w w w w w w w w w w w w w w FXFXFX    ",
"    FXFXFX&.&.&.&.&.&.&.&.&.&.&.&.&.&.&.&.| e.Z.Z.Z.Z.B.<XDXDXDXDXDXDXDXDX).J.W.r.h - w w w w w w w w w w w w w w w w FXFXFX    ",
"    FXFXFX&.&.&.&.&.&.&.&.&.&.&.&.&.&.&.Y I.DXDXDXDXDXDXDXDXDXDXDXDXDXDXDXDXDXDXDX/.8 w w w w w w w w w w w w w w w w FXFXFX    ",
"    FXFX&.&.&.&.&.&.&.&.&.&.&.&.&.&.&.+.1.sXDXMXDXMXDXMXDXDXDXDXDXDXDXDXDXDXMXMXDXMXB - w w w w w w w w w w w w w w w w FXFX    ",
"    FXFX&.&.&.&.&.&.&.&.&.&.&.&.&.&.&.$.6.lXDXMXMXMXbXDXDXDXDXDXDXDXDXDXbXbXbXbXDX4Xj 8 w w w w w w w w w w w w w w w w FXFX    ",
"    FXFX&.&.&.&.&.&.&.&.&.&.&.&.&.&.&.;.Y `.DXDXDXDXDXDXDXDXDXDXDXDXDXDXDXDXDXDXbXW $ a w w w w w w w w w w w w w w w w FXFX    ",
"    FXFX&.&.&.&.&.&.&.&.&.&.&.&.&.&.&.&.&.| h.T._.T.'.bXDXDXDXDXDXnXDX1Xt.a.t.` M & w w w w w w w w w w w w w w w w w w FXFX    ",
"    FXFXFX&.&.&.&.&.&.&.&.&.&.&.&.&.&.&.&.&.| H L G 8.DXDXDXDXDXDXbXDXf.X ; $ $ 2 d w w w w w w w w w w w w w w w w w FXFXFX    ",
"    FXFXFX&.&.&.&.&.&.&.&.&.&.&.&.&.&.&.&.&.;.;.;.| L.DXMXDXDXDXDXDXDXR - a a a w w w w w w w w w w w w w w w w w w w FXFXFX    ",
"    FXFXFX&.&.&.&.&.&.&.&.&.&.&.&.&.&.&.&.&.&.&.;.Y -XDXDXDXDXDXDXDXyXz 2 w w w w w w w w w w w w w w w w w w w w w w FXFXFX    ",
"FX  FXFXFX&.&.&.&.&.&.&.&.&.&.&.&.&.&.&.&.&.&.&.&.;.uXDXDXDXDXDXDXDX+X- w w w w w w w w w w w w w w w w w w w w w w w FXFXFX  FX",
"FX    FXFX&.&.&.&.&.&.&.&.&.&.&.&.&.&.&.&.&.&.;.| i.DXDXDXDXDXDXbXDXg.$ f w w w w w w w w w w w w w w w w w w w w w w FXFX    FX",
"FX    FXFX&.&.&.&.&.&.&.&.&.&.&.&.&.&.&.&.&.&.;.H I.DXMXDXDXDXDXDXDXS - a w w w w w w w w w w w w w w w w w w w w w w FXFX    FX",
"FX    FXFXFX&.&.&.&.&.&.&.&.&.&.&.&.&.&.&.&.&.&.Y ;XDXDXDXDXDXMXDX8Xj 8 w w w w w w w w w w w w w w w w w w w w w w FXFXFX    FX",
"FXFX  FXFXFX&.&.&.&.&.&.&.&.&.&.&.&.&.&.&.&.&.&.;.aXDXDXDXDXDXMXDXJ.$ w w w w w w w w w w w w w w w w w w w w w w w FXFXFX  FXFX",
"FXFX    FXFX&.&.&.&.&.&.&.&.&.&.&.&.&.&.&.&.;.| p.DXDXDXDXDXDXMXDX^ $ a w w w w w w w w w w w w w w w w w w w w w FXFXFX    FXFX",
"FXFX    FXFXFX&.&.&.&.&.&.&.&.&.&.&.&.&.&.&.;.H I.DXMXDXDXDXDXDXqXz 8 w w w w w w w w w w w w w w w w w w w w w w FXFXFX    FXFX",
"FXFXFX    FXFX&.&.&.&.&.&.&.&.&.&.&.&.&.&.&.;.| ,XDXDXDXDXDXDXDXJ.- d w w w w w w w w w w w w w w w w w w w w w w FXFX    FXFXFX",
"FXFXFX    FXFXFX&.&.&.&.&.&.&.&.&.&.&.&.&.&...2.aXDXDXDXDXDXDXDXT $ a w w w w w w w w w w w w w w w w w w w w w FXFXFX    FXFXFX",
"FXFXFXFX    FXFXFX&.&.&.&.&.&.&.;.;.&.&.;.;.| k.DXDXDXDXDXMXDX*X2 w w w w w w w w w w w w w w w w w w w w w w FXFXFX    FXFXFXFX",
"FXFXFXFX    FXFXFX&.&.&.&.&.&.&.Y Y | Y Y &.Y ].DXMXDXDXDXMXDX( $ w w w w w w w w w w w w w w w w w w w w w w FXFXFX    FXFXFXFX",
"FXFXFXFXFX    FXFXFX&.&.&.&.&.| k.#X2X,XZ.$.| 6XDXDXDXDXMXDX%X- w w w w w w w w w w w w w w w w w w w w w w FXFXFX    FXFXFXFXFX",
"FXFXFXFXFX    FXFXFXFX&.&.;.Y P.DXDXDXMXDX X9.DXDXDXDXDXDXDXS $ a w w w w w w w w w w w w w w w w w w w w FXFXFXFX    FXFXFXFXFX",
"FXFXFXFXFXFX    FXFXFXFX$.| 9.MXDXMXDXMXDXzX6XDXDXDXDXMXDXg.$ a w w w w w w w w w w w w w w w w w w w w FXFXFXFX    FXFXFXFXFXFX",
"FXFXFXFXFXFXFX    FXFXFX;.Y Z.DXMXDXDXDXDXDXDXDXDXMXMXDXQ.- w w w w w w w w w w w w w w w w w w w w w FXFXFXFX    FXFXFXFXFXFXFX",
"FXFXFXFXFXFXFXFX    FXFXFXFXB.DXDXDXDXDXDXDXDXDXMXMXDX^.- w w w w w w w w w w w w w w w w w w w w w FXFXFXFX    FXFXFXFXFXFXFXFX",
"FXFXFXFXFXFXFXFX      FXFXFXFXMXDXDXDXMXMXMXbXDXDXDXM.- w w w w w w w w w w w w w w w w w w w w w FXFXFXFX      FXFXFXFXFXFXFXFX",
"FXFXFXFXFXFXFXFXFX      FXFXFXFXDXDXDXDXDXDXDXDX|.V # w a w w w w w w w w w w w w w w w w w w w FXFXFXFX      FXFXFXFXFXFXFXFXFX",
"FXFXFXFXFXFXFXFXFXFX      FXFXFXFXFX^./.).G._ v # - a w w w w w w w w w w w w w w w w w w w FXFXFXFXFX      FXFXFXFXFXFXFXFXFXFX",
"FXFXFXFXFXFXFXFXFXFXFXFX    FXFXFXFXFX+ $ $ - 2 a w w w w w w w w w w w w w w w w w w w w FXFXFXFXFX    FXFXFXFXFXFXFXFXFXFXFXFX",
"FXFXFXFXFXFXFXFXFXFXFXFXFX      FXFXFXFXFXj a w w w w w w w w w w w w w w w w w w w FXFXFXFXFXFX      FXFXFXFXFXFXFXFXFXFXFXFXFX",
"FXFXFXFXFXFXFXFXFXFXFXFXFXFX        FXFXFXFXFXFXw w w w w w w w w w w w w w w w FXFXFXFXFXFX        FXFXFXFXFXFXFXFXFXFXFXFXFXFX",
"FXFXFXFXFXFXFXFXFXFXFXFXFXFXFXFX        FXFXFXFXFXFXFXFXFXq q w w w FXFXFXFXFXFXFXFXFXFX        FXFXFXFXFXFXFXFXFXFXFXFXFXFXFXFX",
"FXFXFXFXFXFXFXFXFXFXFXFXFXFXFXFXFXFX        FXFXFXFXFXFXFXFXFXFXFXFXFXFXFXFXFXFXFXFX        FXFXFXFXFXFXFXFXFXFXFXFXFXFXFXFXFXFX",
"FXFXFXFXFXFXFXFXFXFXFXFXFXFXFXFXFXFXFXFX            FXFXFXFXFXFXFXFXFXFXFXFX            FXFXFXFXFXFXFXFXFXFXFXFXFXFXFXFXFXFXFXFX",
"FXFXFXFXFXFXFXFXFXFXFXFXFXFXFXFXFXFXFXFXFXFXFX                                    FXFXFXFXFXFXFXFXFXFXFXFXFXFXFXFXFXFXFXFXFXFXFX",
"FXFXFXFXFXFXFXFXFXFXFXFXFXFXFXFXFXFXFXFXFXFXFXFXFXFXFX                    FXFXFXFXFXFXFXFXFXFXFXFXFXFXFXFXFXFXFXFXFXFXFXFXFXFXFX"
};
