/* XPM */
static char *pyloncoin128[] = {
/* columns rows colors chars-per-pixel */
"128 128 74 1 ",
"  c #283579",
". c #C28C00",
"X c #C69300",
"o c #C89701",
"O c #C99904",
"+ c #CA9B09",
"@ c #CC9E13",
"# c #CDA21B",
"$ c #CFA422",
"% c #D0A625",
"& c #D2A92C",
"* c #D3AC33",
"= c #D5AF3B",
"- c #D5B03E",
"; c #E9C13D",
": c #D7B345",
"> c #D8B447",
", c #D9B64D",
"< c #D9B84F",
"1 c #D9B754",
"2 c #DAB953",
"3 c #DBBC5B",
"4 c #DDBF63",
"5 c #E9C344",
"6 c #EAC549",
"7 c #EBC750",
"8 c #EBC954",
"9 c #ECCB5C",
"0 c #DEC065",
"q c #DFC269",
"w c #EDCE64",
"e c #E0C36C",
"r c #EED16E",
"t c #E1C673",
"y c #E3CA7D",
"u c #EFD273",
"i c #F0D57B",
"p c #E5CD84",
"a c #E6D08C",
"s c #F0D781",
"d c #F1D886",
"f c #F2DB8B",
"g c #E7D191",
"h c #E8D495",
"j c #E9D69B",
"k c #F3DD94",
"l c #F3DF9A",
"z c #F4E19F",
"x c #EBDAA4",
"c c #EDDDAC",
"v c #EEDFB0",
"b c #F4E2A4",
"n c #F5E4AB",
"m c #EEE0B3",
"M c #F6E6B2",
"N c #F6E8B5",
"B c #F1E4BC",
"V c #F7EABB",
"C c #F2E6C3",
"Z c #F3E8C6",
"A c #F9EDC6",
"S c #F3E9C9",
"D c #F9EFCB",
"F c #F5EDD3",
"G c #F7EFD8",
"H c #FAF1D3",
"J c #F7F0DB",
"K c #FBF3DB",
"L c #FAF5E4",
"P c #FBF7EA",
"I c #FCF9ED",
"U c #FDFBF3",
"Y c #FFFFFF",
"T c None",
/* pixels */
"TTTTTTTTTTTTTTTTTTTTTTTTTTTTTTTTTTTTTTTTTTTTTTTTTTTTTTTTT              TTTTTTTTTTTTTTTTTTTTTTTTTTTTTTTTTTTTTTTTTTTTTTTTTTTTTTTTT",
"TTTTTTTTTTTTTTTTTTTTTTTTTTTTTTTTTTTTTTTTTTTTTTTTTTT                          TTTTTTTTTTTTTTTTTTTTTTTTTTTTTTTTTTTTTTTTTTTTTTTTTTT",
"TTTTTTTTTTTTTTTTTTTTTTTTTTTTTTTTTTTTTTTTTTTTTTT                                  TTTTTTTTTTTTTTTTTTTTTTTTTTTTTTTTTTTTTTTTTTTTTTT",
"TTTTTTTTTTTTTTTTTTTTTTTTTTTTTTTTTTTTTTTTTTTT                                        TTTTTTTTTTTTTTTTTTTTTTTTTTTTTTTTTTTTTTTTTTTT",
"TTTTTTTTTTTTTTTTTTTTTTTTTTTTTTTTTTTTTTTTT             TTTTTTTTTTTTTTTTTTTT             TTTTTTTTTTTTTTTTTTTTTTTTTTTTTTTTTTTTTTTTT",
"TTTTTTTTTTTTTTTTTTTTTTTTTTTTTTTTTTTTTT           TTTTTTTTTTTTTTTTTTTTTTTTTTTTTT           TTTTTTTTTTTTTTTTTTTTTTTTTTTTTTTTTTTTTT",
"TTTTTTTTTTTTTTTTTTTTTTTTTTTTTTTTTTTT          TTTTTTTTTTTTTTTTTTTTTTTTTTTTTTTTTTTT          TTTTTTTTTTTTTTTTTTTTTTTTTTTTTTTTTTTT",
"TTTTTTTTTTTTTTTTTTTTTTTTTTTTTTTTTT         TTTTTTTTTTTTTTTTTTTTTTTTTTTTTTTTTTTTTTTTTT         TTTTTTTTTTTTTTTTTTTTTTTTTTTTTTTTTT",
"TTTTTTTTTTTTTTTTTTTTTTTTTTTTTTTT        TTTTTTTTTTTTTTTTTTTTTTTTTTTTTTTTTTTTTTTTTTTTTTTT        TTTTTTTTTTTTTTTTTTTTTTTTTTTTTTTT",
"TTTTTTTTTTTTTTTTTTTTTTTTTTTTTTT       TTTTTTTTTTTTTTTTT666666666666666666TTTTTTTTTTTTTTTTT       TTTTTTTTTTTTTTTTTTTTTTTTTTTTTTT",
"TTTTTTTTTTTTTTTTTTTTTTTTTTTTT       TTTTTTTTTTTTTTT666666666666666666666666666TTTTTTTTTTTTTT       TTTTTTTTTTTTTTTTTTTTTTTTTTTTT",
"TTTTTTTTTTTTTTTTTTTTTTTTTTTT      TTTTTTTTTTTTT6666666666666666666666666666666666TTTTTTTTTTTTT      TTTTTTTTTTTTTTTTTTTTTTTTTTTT",
"TTTTTTTTTTTTTTTTTTTTTTTTTT       TTTTTTTTTTT6666666666666666666666666666666666666666TTTTTTTTTTT       TTTTTTTTTTTTTTTTTTTTTTTTTT",
"TTTTTTTTTTTTTTTTTTTTTTTTT      TTTTTTTTTTT66666666666666666666666666666666666666666666TTTTTTTTTTT      TTTTTTTTTTTTTTTTTTTTTTTTT",
"TTTTTTTTTTTTTTTTTTTTTTTT     TTTTTTTTTTT6666666666666666666666666666666666666666666666666TTTTTTTTTT     TTTTTTTTTTTTTTTTTTTTTTTT",
"TTTTTTTTTTTTTTTTTTTTTT      TTTTTTTTTT6666666666666666666666666666666666666666666666667666TTTTTTTTTT      TTTTTTTTTTTTTTTTTTTTTT",
"TTTTTTTTTTTTTTTTTTTTT      TTTTTTTTT66666666666666666666666666666666666666666666666665;;;;;;TTTTTTTTT      TTTTTTTTTTTTTTTTTTTTT",
"TTTTTTTTTTTTTTTTTTTT      TTTTTTTT666666666666666666666666666666666666666666666665;6wikbnnnbfsTTTTTTTT      TTTTTTTTTTTTTTTTTTTT",
"TTTTTTTTTTTTTTTTTTT     TTTTTTTTT6666666666666666666566666665666666666666666665;6dAIYYYYYYYYYYYTTTTTTTTT     TTTTTTTTTTTTTTTTTTT",
"TTTTTTTTTTTTTTTTTT     TTTTTTTT6666666666666666666666666666666666666666666676;9MUYYYYYYYYYYYYYYYYTTTTTTTT     TTTTTTTTTTTTTTTTTT",
"TTTTTTTTTTTTTTTTT     TTTTTTTT666656666666666666666666666666666666666666666;7MYYYYYYYYYYYYYYYYYYYYTTTTTTTT     TTTTTTTTTTTTTTTTT",
"TTTTTTTTTTTTTTTT     TTTTTTTT666666666666666666666666666666666666666666666;fUYYYYYYYYYYYYYYYYYYYYYYTTTTTTTT     TTTTTTTTTTTTTTTT",
"TTTTTTTTTTTTTTT     TTTTTTTT6666666666666666666666666666666666666666666657AYYYYYYYYYYYYYYYYYYYYYYYYSXTTTTTTT     TTTTTTTTTTTTTTT",
"TTTTTTTTTTTTTTT    TTTTTTTT66666666666666666666666666666666666666666666;wLYYYYYYYYYYYYYYYYYYYYYYYYYY&oTTTTTTT    TTTTTTTTTTTTTTT",
"TTTTTTTTTTTTTT    TTTTTTTT66666666666666666666666666666666666666666666;uUYYYYYYYYYYYYYLUYYYYYYYYYYYYpX+TTTTTTT    TTTTTTTTTTTTTT",
"TTTTTTTTTTTTT     TTTTTTT66666666666666666666666666666666666666666667;uUYYYYYYYYYYYYYF:YYYYYYYYYYYYYBoo+TTTTTT     TTTTTTTTTTTTT",
"TTTTTTTTTTTT     TTTTTTT66666666666666666666566666666666666666666666;wUYYYYYYYYYYYYYU#:YYYYYYYYYYYYYCo+oOTTTTTT     TTTTTTTTTTTT",
"TTTTTTTTTTTT    TTTTTTT6666666666666666666666666666665666666666666668LYYYYYYYYYYYYYY1.3YYYYYYYYYYYYYxX++OOTTTTTT    TTTTTTTTTTTT",
"TTTTTTTTTTT    TTTTTTT6666666666665666666666666666666666666666666665HYYYYYYYYYYYYYYxXo-YYYYYYYYYYYYY0X+OOOTTTTTTT    TTTTTTTTTTT",
"TTTTTTTTTT    TTTTTTT666666666666666666666666666666666666666666667;nYYYYYYYYYYYYYYI$oo@LYYYYYYYYYYYP#oOOOOOTTTTTTT    TTTTTTTTTT",
"TTTTTTTTTT    TTTTTT666666666666666666666666666666666666666666666;iYYYYYYYYYYYYYYYpX+OXtYYYYYYYYYUYtX+OOoo+oTTTTTT    TTTTTTTTTT",
"TTTTTTTTT    TTTTTT66666666666666666666666666666666666666666666667LYYYYYYYYYYYYYYL@oOOOohYYUYYUYYYaXOOOO+oo++TTTTTT    TTTTTTTTT",
"TTTTTTTT     TTTTTT666666666666666666666666666666666666666666666;NYYYYYYYYYYYYYYYa.+OOOOO4LYYYYYL3XOOOOOOOOOOTTTTTT     TTTTTTTT",
"TTTTTTTT    TTTTTT6666666666666666666666666666666566666666666665uYYYYYYYYYYYYYYYU%OOOOOOOX+<php1@XOOOOOOOOOOo+TTTTTT    TTTTTTTT",
"TTTTTTT    TTTTTT66666666666666666666666666666666666666666666665KYYYYYYYYYYYYYYYcX+OOOOOO+oXXXXXo+OOOOOOOOOo++oTTTTTT    TTTTTTT",
"TTTTTTT    TTTTTT666666666666666666666666666666566666666666666;kYYYYYYYYYYYYYYYY,X+OOOOOOOO+O+++OOOOOOOOOOOOoooTTTTTT    TTTTTTT",
"TTTTTT    TTTTTT66666666666666666666666666666666666666666666668IYYYYYYYYYYYYYYYJOOOOOOOOOOOOOOOOOOOOOOOOOOOOOOOOTTTTTT    TTTTTT",
"TTTTTT    TTTTTT666666666666666666666666666666666666666666666;bYYYYYYYYYYYYYYUYa.+OOOOOOOOOOOOOOOOOOOOOOOOOOOOOOTTTTTT    TTTTTT",
"TTTTT    TTTTTT66666666666666666666666666666666666666666666668UYYYYYYYYYYYYYYYY-o+OOOOOOOOOOOOOOOOOOOOOOOOOOOOOO+TTTTTT    TTTTT",
"TTTTT    TTTTTT666666666666666666566666666666666666666666666;lYYYYYYYYYYYYYYYYJ+O+++OOOOOOOOoOOOOOOOOOOOOOOOOOOOoTTTTTT    TTTTT",
"TTTTT   TTTTTT66666666666666666666666666666666666666656666666LYYYYYYYYYYYYYYYYa..O.XoO+OOOOOOOOOOOOOOOOOOOOOOOOOooTTTTTT   TTTTT",
"TTTT    TTTTTT6656666666666566666666666666666666;57888887776dYYYYYYYYYYYYYYYYYctpyyt:+XOOOOOOOOOOOOOoOOOOOOOOOOO++TTTTTT    TTTT",
"TTTT    TTTTT66666666666666666666666666666666655kKUUUUUUUIUIUYYYYYYYYYYYYYYYYYYYYYYYYL4oOOOOOOOOOOOOOOOOOOOOOOOOoOoTTTTT    TTTT",
"TTTT   TTTTTT6666666666666666666666666666666666DYYYYYYYYYYYYYYYYYYYYYYYYYYYYYYYYUYYUYYYyX+OOOOOOOOOOOOOOOOOOOOOOOO+TTTTTT   TTTT",
"TTT    TTTTT666666666666666666666666666666666;lYYYYYYYYYYYYYYYYYYYYYYYYYYYYYYYYYYYYYYYUY*XOOOOOOOOOOOOOOOOOOOOOOOOOOTTTTT    TTT",
"TTT    TTTTT6666666666666666666666666666666665KYYYYYYYYYYYYYYYYYYYYYYYYYYYYYYYYYYYYYYYYYtX+OOOOOOOOOOOOOOOOOOOoO+oOOTTTTT    TTT",
"TTT   TTTTTT6666666666666666666656666666666667UYYYYYYYYYYYYYYYYYYYYYYYYYYYYYYYYYYYYYYYUYaX+OOOOOOOOOOOOOOOOOOOOOOOOOTTTTTT   TTT",
"TT    TTTTT66666666666666666666666666666666666PYYYYYYYYYYYYYYYYYYYYYYYYYYYYYYYYYYYYYYYUYqX+OOOOOOOOOOOOOOOOOOOOOoOOO+TTTTT    TT",
"TT    TTTTT6666666666666666666666666666666666;NYYYYYYYYYYYYYYYYYYYYYYYYYYYYYYYYYYYYYYUYU$oOOOOOOOOOOOOOOOOOOOOOOOOOOOTTTTT    TT",
"TT   TTTTTT666666666666666666666666666666666669UYYYYYYYYYYYYYYYYYYYYYYYYYYYYYUYYYYYYYYY3XOOOOOOOOOOOOOOOOOOOOOOOOOOOOTTTTTT   TT",
"TT   TTTTTT666666666666666666666666666666666665wKYYYYYYYYYYYYYYYYYYYYYYYYYYYYYYYYYYYYF-XOOOOOOOOOOOOOOOOOOOOOOOOOOOOOTTTTTT   TT",
"T    TTTTT666666666666666665666666666666666666665ibDHHHDHKYYYYYYYYYYYYYYYYYSppyytq4<&OXOOOOOOOOOOOOOOOOOOOoOOOOOOOOOOOTTTTT    T",
"T    TTTTT6666666666666666666666666666666666666665;55555;9YYYYYYYYYYYYYYYYY1.XX.ooXXoOOOOOOOOOOOOOOOOOOOOOOOOOOOOOOOOOTTTTT    T",
"T    TTTTT6666666666666666666666666666666666666666676666;fYYYYYYYYYYYYYYYYU$o++++++O+OOOOOOOOOOOOOOOOOOOOOOOOOOOOOOOOOTTTTT    T",
"T   TTTTTT6666666666666666666666666666666666666666666666;VYYYYYYYYYYYYYYYYF+O+++OOOO+ooOOOOOOOOOOOOOOOOOOOOOOOOOOOOOOOTTTTTT   T",
"T   TTTTTT66666666666666666666666566666666666666666676666LYYYYYYYYYYYYYYYYj.XXXoo+OOOoo+OOOOOOOOOOOOOOOOOOOOOOOOOOOOOOOTTTTT   T",
"T   TTTTT666666666666666666666666666666666666;;555;5;;5;9YYYYYYYYYYYYYYYYYa*>::=@XoOOO+oOoOOOOOOOOOOOOOOOOOOOOOOOOOOOOOTTTTT   T",
"    TTTTT6666666666666666666666666666666666;9lADDDDDDDDDKYYYYYYYYYYYYYYYYYYYYYYYUx$o+OooOOOOOOOOOOOOOOOOOOOOOOOOOOOOOOOTTTTT    ",
"    TTTTT666666666666666666666666666666666;kYYYYYYYYYYYYYYYYYYYYYYYYYYYYYYYYYYYYYYP&X+o+OOOOOOOOOOOOOOOOOOOOOOOOOOOOOOOTTTTT    ",
"    TTTTT66666666666666666666666666666666;dYYYYYYYYYYYYYYYYYYYYYYYYYYYYYYYYYYYYYYYYCoO+oOOOOOOOOoOOOOOOOOOOOOOOOOOOOOOOTTTTT    ",
"    TTTTT666666666666666666666666666666666HYYYYYYYYYYYYYYYYYYYYYYYYYYYYYYYYYYYYYYYYY*oOOOOOOOOOOOOOOOOOOOOOOOOOOOOOOOOOTTTTT    ",
"    TTTTT66666666666666666656666666666665wYYYYYYYYYYYYYYYYYYYYYYYYYYYYYYYYYYYYYYYYYY:oOOOOOOOOOOOOOOOOOOOOOOOOOOOOOOOOOTTTTT    ",
"    TTTTT666666666566666666666666666666659YYYYYYYYYYYYYYYYYYYYYYYYYYYYYYYYYYYYYYYYYU$oOOOOOOOOOOOOOOOOOOOOOOOOOOOoOOOOOTTTTT    ",
"    TTTTT666666666666666666666666666666666LYYYYYYYYYYYYYYYYYYYYYYYYYYYYYYYYYYYYYYYYjoOOOOOOOOOOOOOOOOOOOOOOOOOOOOOOOOOOTTTTT    ",
"    TTTTT66666666666666566666665666666666;kYYYYYYYYYYYYYYYYYYYYYYYYYYYYYYYYYYYYUYYS+OOOOOOOOOOOOOOOOOOOOOOOOOOOOOOOOOOOTTTTT    ",
"    TTTTT6666666666666666666666666666666665nYYYYYYYYYYYYYYYYYYYYYYYYYYYYYYYYYYYYYG$X+OOOOOOOOOOOOOOOOOOOOOOOOOOOOOOOOOOTTTTT    ",
"    TTTTT66666666666666666666666666666666665uAPUUYYYYYYYYYYYYYYYYYYYYYYYUPLLJFCcq@oOOOOOoOOOOOOOOOOOOOOoOOOoOOOOOOOOOOOTTTTT    ",
"    TTTTT66666666666666666666666666666666666;;56555666UYYYYYYYYYYYYYYYY3.+oooooXXOOOOOOOOOOOOOOOOOOOOOOOOOOOOOOOOOOOOOOTTTTT    ",
"    TTTTT66666666666666666666666666666666666666666665rYYYYYYYYYYYYYYYYU$oOOOOOO+OOOOOOOOOOOOOOOOOOOOOOOOOOOOOOOOOOOOOOOTTTTT    ",
"    TTTTT6666666666666666666666666666666666666666666;lYYYYYYYYYYYYYYYYF+OOOOOOOOOOOOOOOOOOOOOOOOOOOOOOOOOOOOOOOOOOOOOOOTTTTT    ",
"    TTTTT66666666666666666666666666666666666666666665DYYYYYYYYYYYYYYYYjX+OOOOOOOOOOOOOOOOOOOOOOOOOOOOOOOOOOOOOOOOOOOOOOTTTTT    ",
"T   TTTTT66666666666666666666666666666666666666666667IYYYYYYYYYYYYYYYY4X+OOOOOOOOOOOOOOOOOOOOOOOOOOOOOOOOOOOOOOOOOOOOOOTTTTT   T",
"T   TTTTT6666666666666656666666666666666666666666665uYYYYYYYYYYYYYYYYY&XOOOOOOOOOOOOOOOOOOOOOOOOOOOOOOOOOOOOOOOOOOOOOOTTTTTT   T",
"T   TTTTTT66666666666666666666666666666666666666666;bYYYYYYYYYYYYYYYYJ+OOOOOOOOOOOOOOOOOOOOOOOOOOOOOOOoOOOOOOOOOOOOOOOTTTTTT   T",
"T    TTTTT666666666666666666666666665666666666666665DYYYYYYYYYYYYYYUYjXOOOOOOOOOOOoOOOOOOOOOOOOOOOOOOOOOOOOOOOOOOOOOOOTTTTT    T",
"T    TTTTT666666666666666666666666666666666666666668UYYYYYYYYYYYYYYYY4X+OOOOOOOOOOOOOOOOOOOOOOOOOOOOOOOOOOOOOOOOOoo+OOTTTTT    T",
"T    TTTTT6666666666666666666666666666666666666666;iYYYYYYYYYYYYYYYYY%XOOOOOOOOOOOOOOOOOOOOOOOOOOOOOOOOOOOOOOOOOOOOOOOTTTTT    T",
"TT   TTTTTT666666666666666666666666666666666666666;bYYYYYYYYYYYYYYYYFOOOOOOoOOOOOOOOOOOOOOOOOOOOOOOOOOOOOOOOOOOOOOOOOTTTTTT   TT",
"TT   TTTTTT6666666666666566666666666666666666666665DYYYYYYYYYYYYYYYYhX+OOOOOOOOOOOOOOOOOOOOOOOOOOOOOOOOOOOOOOOOOOOOOOTTTTTT   TT",
"TT    TTTTT6666666666666666666666666666666666666668UYYYYYYYYYYYYYYYY<XOOOOOOOOOOOOOOOOOOOOOOOOOOOOOOOOOOOOOOOOOOOOOOOTTTTT    TT",
"TT    TTTTT666666666666666666666666666666666666665iYYYYYYYYYYYYYYYYP#oOOOOOOOOOOOOOOOOOOOOOOOOoOOOOOOOOOOOOOOOOOOOOOOTTTTT    TT",
"TTT   TTTTTT6666666666666666666666666666666666666;bYYYYYYYYYYYYYYYYmXOOOOOOoOOOOOOOOOOOOOOOOOOOOOOOOOOOOOOOOOOOOOOOOTTTTTT   TTT",
"TTT    TTTTT66666666666666666666666666666666666665HYYYYYYYYYYYYYYYYqX+OOOOOOOOOOOOOOOOOOOOOOOOOOOOoOOOOOOOOOOOOOOOOOTTTTT    TTT",
"TTT    TTTTT66666666666666666666666666666666666668UYYYYYYYYYYYYYYYU%XOOOOOOOOOOOOOOOOOOOOOOOOOOOOOOOOOOOOOOOOOOOOOOTTTTTT    TTT",
"TTTT   TTTTTT666666666666666666666566666666666665iYYYYYYYYYYYYYYYYZoOOOOOOOOOOOOOOoOOOOOOOOOOOOOOOOOOOOOOOOOOOOOOOOTTTTTT   TTTT",
"TTTT    TTTTT66666666666666666666666666666666666;nYYYYYYYYYYYYYYYYyX+OOOOOOOOOOOOOOOOOOOOOOOOOOOOOOOOOOOOOOOOOOOOOOTTTTT    TTTT",
"TTTT    TTTTTT66666666666666666666666666666666665HYYYYYYYYYYYYYYYY&XOOOOOOOOOOOOOOOOOOOOOOOOOOOOOOOOOOOOOOOOOOOOOOTTTTTT    TTTT",
"TTTTT   TTTTTT66666666666566666666666666666666658YYYYYYYYYYYYYYYYBoOOOOOOOOOOOOOOOOOOOOOOOOOOOOOOOOOOOOOOOOOOOOOOOTTTTTT   TTTTT",
"TTTTT    TTTTTT66666666666666666666666666666666;iYYYYYYYYYYYYYYYYq.+OOOOOOOOoOOOOOOOOOOOOOOOOOOOOOOOOOOOOOOOOOoOOTTTTTT    TTTTT",
"TTTTT    TTTTTT66666666666666666666666666666666;MYYYYYYYYYYYYYYYI#o+OOOOOOOoOOOOOOOOOOOOOOOOOOOOOOOOOOOOOOOOOOOOOTTTTTT    TTTTT",
"TTTTTT    TTTTTT66666666666666666666666666666666JYYYYYYYYYYYYYYYxXOOOOOOOOOOOOOOOOOOOOOOOOOOOOOOOOOOOOOOOOOOOOOOTTTTTT    TTTTTT",
"TTTTTT    TTTTTT66666666666666666666666666666669YYYYYYYYYYYYYYYY>o+OOOOOOOOOOOOOOOOOOOOOOOOOOOOOOOOOOOOOOOOOOOOOTTTTTT    TTTTTT",
"TTTTTTT    TTTTTT66666666666666666666666666666;fYYYYYYYYYYYYYYYSOOOOOOOOOOOOOOOOOOOOOOOOOOOOOOOOOOOOOOOOOOOOOOOTTTTTT    TTTTTTT",
"TTTTTTT    TTTTTT66666666666666666666666666666;VYYYYYYYYYYYYYYY4X+OOOOOOOOOOOOOOOOOOOOOOOOOOOOOOOOOOOOOOOOOOOOTTTTTTT    TTTTTTT",
"TTTTTTTT    TTTTTT66666666666666666667666666666IYYYYYYYYYYYYYYF+oOOOOOOOOOOOOOOOOOOOOOOOOOOOOOOOOOOOOOOOOOOOOOTTTTTT    TTTTTTTT",
"TTTTTTTT     TTTTTT6666666666666665;;;;;666665rYYYYYYYYYYYYYYY4X+OOOOOOOOOOOOOOOOOOOOOOOOOOoOOOOOOOOOOOOOOOOOTTTTTT     TTTTTTTT",
"TTTTTTTTT    TTTTTT666666666666655wkbbzs8;666;bYYYYYYYYYYYYYYS+oOOOOOOOOOOOOOOOOOOOOOOOOOOOOOOOOOOOOOOOOOOOOTTTTTTT    TTTTTTTTT",
"TTTTTTTTTT    TTTTTT66666666667;rHYYYYYYUb6565HYYYYYYYYYYYYYY1X+OOOOOOOOOOOOOOOOOOOOOOOOOOOOOOOOOOOOOOOOOOOOTTTTTT    TTTTTTTTTT",
"TTTTTTTTTT    TTTTTTT666666666;kYYYYYYYYYYL8;wYYYYYYYYYYYYYYmoOOOOOOOOOOOOOOOOOOOOOOOOOOOOOOOOOOOOOOOOOOOOOTTTTTTT    TTTTTTTTTT",
"TTTTTTTTTTT    TTTTTTT6666667;dYYYYYYYYYYYYH;zYYYYYYYYYYYYYP$o+OOOOOOOOOOOOOOOOOOOOOOOOOOOOOOOOOOoOOOOOOOOTTTTTTT    TTTTTTTTTTT",
"TTTTTTTTTTTT    TTTTTTT6666668IYYYYYYYYYYYYYdLYYYYYYYYYYYYY4X+OOOoOOOOOOOOOOOOOoOOOOOOOOOOOOOOOOOOOOOOOOOTTTTTTT    TTTTTTTTTTTT",
"TTTTTTTTTTTT     TTTTTTT6666;fYYYYYYYYYYYYYYUYYYYYYYYYYYUYhXOOOoOOOOOOOOOOOOOOOOOOOOOOOOOOOOOOOOOOOOOOOOTTTTTTT     TTTTTTTTTTTT",
"TTTTTTTTTTTTT     TTTTTT6666;VYYYYYYYYYYYYYYYYYYYYYYYYYYYBOOOOOOOOOOOOOOOOOOOOOOOOOOOoOOOOOOOOOOOOOOOOOTTTTTTT     TTTTTTTTTTTTT",
"TTTTTTTTTTTTTT    TTTTTTT6665HYYYYYYYYYYYYYYYYYYYYYYYYYYF@o+OOOOOOOOOOOOOOOOOOOOOOOOOOOOOOOOOOOOOOOOOOTTTTTTTT    TTTTTTTTTTTTTT",
"TTTTTTTTTTTTTTT    TTTTTTTT65HYYYYYYYYYYYYYYYYYYYYYYYUYF@o+OOOOOOOOOOOOOOOOOOOOOOOOOOOOOOOOOOOOOOOOOOTTTTTTTT    TTTTTTTTTTTTTTT",
"TTTTTTTTTTTTTTT     TTTTTTTT;NYYYYYYYYYYYYYYYYYYYYYYYYS@o+OOOOOOOOOOOOOOOOOOOOOOOOOOOOOOOOOOOOOOOOOOTTTTTTTT     TTTTTTTTTTTTTTT",
"TTTTTTTTTTTTTTTT     TTTTTTTTrYYYYYYYYYYYYYYYYYYYYYYYcOoOOOOOOOOOOOOOOOOOOOOOOOOOOOOOOOOOOOOOOOOOOOTTTTTTTT     TTTTTTTTTTTTTTTT",
"TTTTTTTTTTTTTTTTT     TTTTTTTTTYYYYYYYYYYYYYYYYYYYYU4XO+OOOOOOOOOOOOOOOOOOOOOOOOOOOOOOOOOOoOOOOOOOTTTTTTTT     TTTTTTTTTTTTTTTTT",
"TTTTTTTTTTTTTTTTTT     TTTTTTTTYYYYYYYYYYYYYYYUYYYv#XOOOOOOOOOOOOOOOOOOOOOOOOOOOOOOOOOOOOOOOOOo+OTTTTTTTT     TTTTTTTTTTTTTTTTTT",
"TTTTTTTTTTTTTTTTTTT     TTTTTTTTTYYYYUYYYYYYYYYYx$Xo+OOOOOOOOOOOOOOOOOOOOOOOOOOOOOOOOOOOOOOOOOOTTTTTTTTT     TTTTTTTTTTTTTTTTTTT",
"TTTTTTTTTTTTTTTTTTTT      TTTTTTTTTYYYYYYYYYPv<+Xo++OOOOOOOOOOOOOOOOOOOOOOOOOOOOOOOOOOOOoOOOOOTTTTTTTT      TTTTTTTTTTTTTTTTTTTT",
"TTTTTTTTTTTTTTTTTTTTT      TTTTTTTTT@*<3,*#+XXoO++ooOOoOOOOOOOOOOOOOOOOOOOOOOOOOOOOOOOoO+OOOTTTTTTTTT      TTTTTTTTTTTTTTTTTTTTT",
"TTTTTTTTTTTTTTTTTTTTTT      TTTTTTTTToooooooO++OOOOOOOOOOOOOOOOOOOOOoOOOOOOOOOOOOOO+oOOOOOTTTTTTTTTT     TTTTTTTTTTTTTTTTTTTTTTT",
"TTTTTTTTTTTTTTTTTTTTTTTT      TTTTTTTTT+OOO+OOOOOOOOOOOOOOOOOOOOOOOOOOOOOOOOOOOOOOOOOOOOTTTTTTTTTT      TTTTTTTTTTTTTTTTTTTTTTTT",
"TTTTTTTTTTTTTTTTTTTTTTTTT      TTTTTTTTTT+OOoO+oOOOOOOOOOOOOOOOOOOOOOOOOOOOOOOOOOOOOOOTTTTTTTTTTT      TTTTTTTTTTTTTTTTTTTTTTTTT",
"TTTTTTTTTTTTTTTTTTTTTTTTTT       TTTTTTTTTTTo+ooOOOOOOOOOOOOOOOOOOOOOOOOOOOOOOOOOOOOTTTTTTTTTTT       TTTTTTTTTTTTTTTTTTTTTTTTTT",
"TTTTTTTTTTTTTTTTTTTTTTTTTTTT      TTTTTTTTTTTTT+OOOOOOOOOOoOOOOOOOOOOOOOOOOOOOOOOTTTTTTTTTTTTT      TTTTTTTTTTTTTTTTTTTTTTTTTTTT",
"TTTTTTTTTTTTTTTTTTTTTTTTTTTTT       TTTTTTTTTTTTTTOOOOOOOOOOOOOOOOOoOOo+OOOOOTTTTTTTTTTTTTTT       TTTTTTTTTTTTTTTTTTTTTTTTTTTTT",
"TTTTTTTTTTTTTTTTTTTTTTTTTTTTTTT       TTTTTTTTTTTTTTTTTOOOOOOOOOOOO+OOOOOTTTTTTTTTTTTTTTTT       TTTTTTTTTTTTTTTTTTTTTTTTTTTTTTT",
"TTTTTTTTTTTTTTTTTTTTTTTTTTTTTTTT        TTTTTTTTTTTTTTTTTTTTTTTTTTTTTTTTTTTTTTTTTTTTTTTT        TTTTTTTTTTTTTTTTTTTTTTTTTTTTTTTT",
"TTTTTTTTTTTTTTTTTTTTTTTTTTTTTTTTTT         TTTTTTTTTTTTTTTTTTTTTTTTTTTTTTTTTTTTTTTTTT         TTTTTTTTTTTTTTTTTTTTTTTTTTTTTTTTTT",
"TTTTTTTTTTTTTTTTTTTTTTTTTTTTTTTTTTTT          TTTTTTTTTTTTTTTTTTTTTTTTTTTTTTTTTTTT          TTTTTTTTTTTTTTTTTTTTTTTTTTTTTTTTTTTT",
"TTTTTTTTTTTTTTTTTTTTTTTTTTTTTTTTTTTTTT           TTTTTTTTTTTTTTTTTTTTTTTTTTTTTT           TTTTTTTTTTTTTTTTTTTTTTTTTTTTTTTTTTTTTT",
"TTTTTTTTTTTTTTTTTTTTTTTTTTTTTTTTTTTTTTTTT             TTTTTTTTTTTTTTTTTTTT             TTTTTTTTTTTTTTTTTTTTTTTTTTTTTTTTTTTTTTTTT",
"TTTTTTTTTTTTTTTTTTTTTTTTTTTTTTTTTTTTTTTTTTTT                                        TTTTTTTTTTTTTTTTTTTTTTTTTTTTTTTTTTTTTTTTTTTT",
"TTTTTTTTTTTTTTTTTTTTTTTTTTTTTTTTTTTTTTTTTTTTTTT                                  TTTTTTTTTTTTTTTTTTTTTTTTTTTTTTTTTTTTTTTTTTTTTTT",
"TTTTTTTTTTTTTTTTTTTTTTTTTTTTTTTTTTTTTTTTTTTTTTTTTTT                          TTTTTTTTTTTTTTTTTTTTTTTTTTTTTTTTTTTTTTTTTTTTTTTTTTT",
"TTTTTTTTTTTTTTTTTTTTTTTTTTTTTTTTTTTTTTTTTTTTTTTTTTTTTTTTT              TTTTTTTTTTTTTTTTTTTTTTTTTTTTTTTTTTTTTTTTTTTTTTTTTTTTTTTTT"
};
