/* XPM */
static char * pyloncoin16_xpm[] = {
"16 16 112 2",
"  	c None",
". 	c #F2CB47",
"+ 	c #F6CE46",
"@ 	c #F6CE48",
"# 	c #F0C639",
"$ 	c #CBAA3C",
"% 	c #FDD344",
"& 	c #EDC748",
"* 	c #E9C449",
"= 	c #E8C44B",
"- 	c #E7C141",
"; 	c #EFD57F",
"> 	c #FCF5D2",
", 	c #FFFFF6",
"' 	c #F7CF46",
") 	c #E6C24A",
"! 	c #EAC549",
"~ 	c #EAC74E",
"{ 	c #E9C23E",
"] 	c #F2DC92",
"^ 	c #FFFFFF",
"/ 	c #ECDDAE",
"( 	c #FBFCFD",
"_ 	c #F3D98A",
": 	c #FCD444",
"< 	c #EAC54A",
"[ 	c #EAC447",
"} 	c #E8C038",
"| 	c #ECCB5C",
"1 	c #FFFEFC",
"2 	c #FBF7EB",
"3 	c #C99912",
"4 	c #CFA524",
"5 	c #C89B11",
"6 	c #D8A200",
"7 	c #EEC848",
"8 	c #E9C343",
"9 	c #EDCE64",
"0 	c #FBF3DA",
"a 	c #FCF6E4",
"b 	c #FEFDFB",
"c 	c #F2E7C3",
"d 	c #CA9A0C",
"e 	c #C79600",
"f 	c #CC9C03",
"g 	c #AC881A",
"h 	c #EFC948",
"i 	c #EAC446",
"j 	c #EBC750",
"k 	c #F4E09E",
"l 	c #FDF9ED",
"m 	c #EDDDAB",
"n 	c #DCBD5D",
"o 	c #CB9C0C",
"p 	c #C99904",
"q 	c #C89905",
"r 	c #CD9C01",
"s 	c #E8C44A",
"t 	c #EAC64B",
"u 	c #E9C241",
"v 	c #F6E5AF",
"w 	c #FBF5E0",
"x 	c #FEFBF3",
"y 	c #FDFBF4",
"z 	c #DAB856",
"A 	c #C69200",
"B 	c #CA9B07",
"C 	c #C79805",
"D 	c #D39F00",
"E 	c #E8C449",
"F 	c #EED16F",
"G 	c #F7E9BB",
"H 	c #F9F3E1",
"I 	c #DFC269",
"J 	c #D1A727",
"K 	c #C89700",
"L 	c #C99905",
"M 	c #EAC64D",
"N 	c #E7BE33",
"O 	c #F3DD97",
"P 	c #EBD9A3",
"Q 	c #C28C00",
"R 	c #C89805",
"S 	c #C89904",
"T 	c #EAC444",
"U 	c #F9EFCF",
"V 	c #DCBD5E",
"W 	c #C69300",
"X 	c #CA9B09",
"Y 	c #CC9B02",
"Z 	c #FCD445",
"` 	c #E6C146",
" .	c #E9C344",
"..	c #EBC751",
"+.	c #FEFDF7",
"@.	c #FBF7EC",
"#.	c #CDA017",
"$.	c #C69706",
"%.	c #D9A300",
"&.	c #FCDB6C",
"*.	c #F9F5E9",
"=.	c #FBF3D7",
"-.	c #E1C675",
";.	c #D4A000",
">.	c #FFFFFC",
",.	c #F9F1D9",
"'.	c #DEC26B",
").	c #C59400",
"!.	c #C79806",
"~.	c #CB9400",
"{.	c #D3A001",
"].	c #CF9D00",
"                                ",
"            . + @ # $           ",
"        % & * = - ; > ,         ",
"      ' ) ! ~ { ] ^ / ( _       ",
"    : ) < [ } | 1 2 3 4 5 6     ",
"    7 < 8 9 0 a ^ b c d e f g   ",
"  h * < i j k l ^ m n o p q r   ",
"  + s t u v w x ^ y z A B C D   ",
"  + E < i F G ^ H I J K L C D   ",
"  h * ! M N O ^ P Q R p p S r   ",
"    7 < < T U ^ V W X p p Y     ",
"    Z `  ...+.@.#.K L p $.%.    ",
"      &.*.=.^ -.A B p $.;.      ",
"        >.,.'.).!.R Y %.        ",
"            ~.{.D ].            ",
"                                "};
