/* XPM */
static char *pyloncoin32[] = {
/* columns rows colors chars-per-pixel */
"32 32 228 2 ",
"   c #202F7B",
".  c #253174",
"X  c #283475",
"o  c #2A3677",
"O  c #2A3777",
"+  c #2B3777",
"@  c #2C3776",
"#  c #21307B",
"$  c #273479",
"%  c #273579",
"&  c #26347A",
"*  c #22317D",
"=  c #22327D",
"-  c #23327D",
";  c #20307E",
":  c #293578",
">  c #283479",
",  c #293678",
"<  c #293679",
"1  c #2A3678",
"2  c #2A3778",
"3  c #2B3778",
"4  c #2A3679",
"5  c #2A3779",
"6  c #28357A",
"7  c #29367A",
"8  c #2A377A",
"9  c #2B3878",
"0  c #2B397B",
"q  c #2C3878",
"w  c #2C397B",
"e  c #C38F00",
"r  c #C39000",
"t  c #C49000",
"y  c #C59100",
"u  c #C59200",
"i  c #C69300",
"p  c #C69302",
"a  c #C59401",
"s  c #C69400",
"d  c #C79500",
"f  c #C69401",
"g  c #C79501",
"h  c #C79600",
"j  c #C69403",
"k  c #C59604",
"l  c #C59707",
"z  c #C69706",
"x  c #C89700",
"c  c #CB9600",
"v  c #C89703",
"b  c #C79805",
"n  c #C79806",
"m  c #C99802",
"M  c #C99803",
"N  c #C99903",
"B  c #CB9A02",
"V  c #CB9A03",
"C  c #CC9B02",
"Z  c #CD9C01",
"A  c #CE9C00",
"S  c #CF9D00",
"D  c #CF9C03",
"F  c #C89904",
"G  c #C99904",
"H  c #C89805",
"J  c #C89905",
"K  c #C99905",
"L  c #C99A05",
"P  c #CA9A05",
"I  c #C99906",
"U  c #C99A06",
"Y  c #C99A07",
"T  c #CA9A06",
"R  c #CA9A07",
"E  c #CA9A08",
"W  c #CA9B08",
"Q  c #CA9B09",
"!  c #CB9C0B",
"~  c #CB9D0E",
"^  c #D8A200",
"/  c #D9A200",
"(  c #CDA016",
")  c #CDA11B",
"_  c #CFA526",
"`  c #D0A625",
"'  c #D3AC34",
"]  c #D3AC36",
"[  c #D0AB39",
"{  c #D5AF3E",
"}  c #D5B03C",
"|  c #E7BD30",
" . c #E8BE33",
".. c #E8BF37",
"X. c #E4BD3D",
"o. c #E6BF3E",
"O. c #EDC332",
"+. c #E9C13B",
"@. c #E8C13C",
"#. c #E9C13C",
"$. c #E9C13D",
"%. c #E9C13E",
"&. c #E9C23E",
"*. c #E8C23F",
"=. c #E9C23F",
"-. c #D6B243",
";. c #D7B347",
":. c #DBBA56",
">. c #DDBF61",
",. c #E9C240",
"<. c #E9C341",
"1. c #E9C342",
"2. c #E9C344",
"3. c #E9C444",
"4. c #EAC445",
"5. c #EAC446",
"6. c #EAC447",
"7. c #EFCA47",
"8. c #E7C348",
"9. c #E5C14A",
"0. c #E5C24A",
"q. c #E7C34A",
"w. c #E6C24B",
"e. c #E8C34A",
"r. c #E9C449",
"t. c #E9C549",
"y. c #EAC549",
"u. c #EAC748",
"i. c #EAC54A",
"p. c #EAC64A",
"a. c #EAC64B",
"s. c #ECC748",
"d. c #E9C54C",
"f. c #EAC64C",
"g. c #EAC64D",
"h. c #EAC74D",
"j. c #EEC848",
"k. c #EFC948",
"l. c #F1CA47",
"z. c #FBD245",
"x. c #FCD344",
"c. c #FCD245",
"v. c #EBC751",
"b. c #EBC852",
"n. c #ECCB5B",
"m. c #ECCC5E",
"M. c #DFC268",
"N. c #EDCC60",
"B. c #EECF68",
"V. c #EED06C",
"C. c #EED16E",
"Z. c #E0C572",
"A. c #EFD374",
"S. c #E5CF89",
"D. c #E6CF89",
"F. c #E6D08C",
"G. c #F1D884",
"H. c #F2DA8C",
"J. c #E7D292",
"K. c #E8D392",
"L. c #EAD79C",
"P. c #F2DC92",
"I. c #F3DC92",
"U. c #F3DD95",
"Y. c #F3DE98",
"T. c #F3DF99",
"R. c #F3DF9A",
"E. c #F4E09F",
"W. c #EBD9A2",
"Q. c #ECDBA7",
"!. c #EDDDAE",
"~. c #F4E1A0",
"^. c #F4E2A5",
"/. c #F5E4AD",
"(. c #EFE0B3",
"). c #F0E2B7",
"_. c #F6E7B5",
"`. c #F0E2B8",
"'. c #F0E3BA",
"]. c #F4E7BC",
"[. c #F7E9B9",
"{. c #F7E9BB",
"}. c #F7EABC",
"|. c #F8EBBE",
" X c #F1E6C1",
".X c #F2E6C3",
"XX c #F8EBC0",
"oX c #F8ECC3",
"OX c #F8ECC4",
"+X c #F4E9CA",
"@X c #F4E9CB",
"#X c #F4EBCA",
"$X c #F9EECB",
"%X c #F9EFCC",
"&X c #F3EBD3",
"*X c #F6EED7",
"=X c #F6EFD7",
"-X c #F7EFD7",
";X c #F7EFD8",
":X c #F7F3E4",
">X c #FBF5E0",
",X c #FCF5E0",
"<X c #F9F4E4",
"1X c #FCF7E5",
"2X c #FCF7E6",
"3X c #F7F4EC",
"4X c #FCF8E8",
"5X c #FDF9EA",
"6X c #FBF8ED",
"7X c #FDF9EC",
"8X c #FDFAEF",
"9X c #FDFBF1",
"0X c #FEFBF1",
"qX c #FCFAF2",
"wX c #FDFBF3",
"eX c #FDFBF5",
"rX c #F9F9F9",
"tX c #FEFDF9",
"yX c #FEFDFA",
"uX c #FEFEFA",
"iX c #FEFEFB",
"pX c #FEFEFC",
"aX c #FFFEFC",
"sX c #FFFEFD",
"dX c #FFFEFE",
"fX c #FFFFFE",
"gX c gray100",
"hX c None",
/* pixels */
"hXhXhXhXhXhXhXhXhXhXhXhXq q < < < 3 q q hXhXhXhXhXhXhXhXhXhXhXhX",
"hXhXhXhXhXhXhXhXhX< q # hXhXhXhXhXhXhXhX# < 3 hXhXhXhXhXhXhXhXhX",
"hXhXhXhXhXhXhX< 9 hXhXhXhXz.l.7.7.l.c.hXhXhXhX9 < hXhXhXhXhXhXhX",
"hXhXhXhXhXhX< < hXhX7.q.q.y.y.y.y.y.y.w.o.O.hXhX. 9 hXhXhXhXhXhX",
"hXhXhXhXhX< hXhXy.q.y.y.y.y.y.y.y.f.#.b.H./.].:XhXhX< hXhXhXhXhX",
"hXhXhXhX< hXhXw.y.y.y.y.y.y.y.y.f.#.G.8XgXgXgXgX3XhXhX< hXhXhXhX",
"hXhXhX< hXhXw.y.y.y.y.y.y.y.y.f.#.P.gXgXeX(.gXyXgX[ hXhX< hXhXhX",
"hXhX< $ hXw.y.y.y.y.y.y.y.y.y.,.A.gXyXgXQ._ yXgX*X! z hX$ < hXhX",
"hXhXq hXs.y.y.y.y.y.y.y.f.f.f.f.>XgXgXgX-.i ' M.) h L L hX+ hXhX",
"hX< hXhXw.y.y.y.y.y.y.6.@.#.| U.gXtXgX+Xt i p i v L M z hXhXo hX",
"hX< hXk.y.y.y.y.y.y.6.b.T.^.R.5XgXyXgX*XL.>.v L L L M L D hXo hX",
"hX# hXe.y.y.y.y.y.f.#.T.gXgXgXgXgXgXgXgXgXyX` v L L L M n hX# hX",
"q hXhXe.y.y.y.y.y.y.5.V.>X5X9XgXgXgXyX*X;XK.L M M L M L n hXhX+ ",
"q hXx.y.y.y.y.y.y.y.5...#.+.{.gXyXgX'.h i i M L L M L M L ^ hX+ ",
"q hXl.e.y.y.y.y.f.5.m.{.OX|.9XgXgXgX<X+XD.L L v M L M L L S hXo ",
"< hXk.y.y.y.y.y.f.#.~.gXgXgXgXgXgXgXgXgX6X( v L L M L M L C hX< ",
"< hX7.y.y.y.y.y.y.6.N.OX%X1XgXgXgX8X).).:.v L M L M L M L M hX< ",
"< hXk.y.y.y.y.y.y.y.6.,. ._.gXyXgX!.e i i M M L M L M L M D hX+ ",
"+ hXc.y.y.y.y.y.y.y.y.f.f.2XgXyXgXZ.i ! L L L M L M L M L hXhX+ ",
"q hXhXq.y.y.y.y.y.y.f.,.B.gXgXgXgX] i L M L M L M L M L n hXhX+ ",
"hX# hXe.y.y.y.y.y.y.y.#.P.gXyXgX;XE M L L M L M M L M L n hX# hX",
"hXq hXk.y.y.y.y.y.y.f.#.XXgXyXgXJ.i E L M L M L L M L L D hX9 hX",
"hX3 hXhXq.y.y.y.f.y.y.f.2XgXgXgX{ i L M L M L M M L M L hXhXo hX",
"hXhX3 hXs.q.y.6.<.y.+.V.gXyXgX Xh L L L M L M L L M L M hXo hXhX",
"hXhX< < hXw.6.n.$X6XU.~.gXyXgX;.i L L M L M L M M L z hX$ < hXhX",
"hXhXhX< hXhXo._.gXgXyX9XgXgXF.i E L M L M L M L L z hXhX< hXhXhX",
"hXhXhXhX< hXhX+XgXgXgXgXgXD.h M L M L M L M L M z hXhX< hXhXhXhX",
"hXhXhXhXhX9 hXhXrX&X XQ.} i M L M L M L M L L L hXhX< hXhXhXhXhX",
"hXhXhXhXhXhX9 o hXhXc i i L L L L M L M n D hXhX< < hXhXhXhXhXhX",
"hXhXhXhXhXhXhX< q hXhXhXhX^ D C C C ^ hXhXhXhX< < hXhXhXhXhXhXhX",
"hXhXhXhXhXhXhXhXhXq < # hXhXhXhXhXhXhXhX# q o hXhXhXhXhXhXhXhXhX",
"hXhXhXhXhXhXhXhXhXhXhXhX+ < o < < o + + hXhXhXhXhXhXhXhXhXhXhXhX"
};
