<?xml version="1.0" encoding="utf-8"?>
<!-- Generator: Adobe Illustrator 16.0.0, SVG Export Plug-In . SVG Version: 6.00 Build 0)  -->
<!DOCTYPE svg PUBLIC "-//W3C//DTD SVG 1.1//EN" "http://www.w3.org/Graphics/SVG/1.1/DTD/svg11.dtd">
<svg version="1.1"
	 id="svg2" xmlns:dc="http://purl.org/dc/elements/1.1/" xmlns:cc="http://creativecommons.org/ns#" xmlns:rdf="http://www.w3.org/1999/02/22-rdf-syntax-ns#" xmlns:svg="http://www.w3.org/2000/svg" xmlns:sodipodi="http://sodipodi.sourceforge.net/DTD/sodipodi-0.dtd" xmlns:inkscape="http://www.inkscape.org/namespaces/inkscape" inkscape:version="0.48.2 r9819" sodipodi:docname="bitcoin-logo-noshadow.svg"
	 xmlns="http://www.w3.org/2000/svg" xmlns:xlink="http://www.w3.org/1999/xlink" x="0px" y="0px" width="1024px" height="1024px"
	 viewBox="0 0 1024 1024" enable-background="new 0 0 1024 1024" xml:space="preserve">
<g>
	<g opacity="0.4">
		
			<image overflow="visible" width="1071" height="1071" xlink:href="74FB42086FFB74F7.png"  transform="matrix(1 0 0 1 -22.5 -17.5)">
		</image>
	</g>
	<g>
		<g>
			<g>
				<g>
					<linearGradient id="SVGID_1_" gradientUnits="userSpaceOnUse" x1="157.7661" y1="153.061" x2="863.5498" y2="858.8447">
						<stop  offset="0" style="stop-color:#000000"/>
						<stop  offset="0.5363" style="stop-color:#060606"/>
						<stop  offset="0.8282" style="stop-color:#0C0C0C"/>
					</linearGradient>
					<path fill="url(#SVGID_1_)" d="M537.926,7.714C404.851,0.436,276.912,45.389,177.607,134.299
						C78.328,223.285,19.681,345.526,12.398,478.62c-7.291,133.176,37.65,261.088,126.619,360.379
						c88.998,99.298,211.261,157.944,344.333,165.211c133.066,7.287,261.083-37.622,360.347-126.577
						c99.238-89.025,157.939-211.271,165.223-344.437c7.295-133.102-37.705-261.021-126.627-360.307
						C793.324,73.674,670.986,15.016,537.926,7.714L537.926,7.714z"/>
				</g>
			</g>
			<defs>
				<filter id="Adobe_OpacityMaskFilter" filterUnits="userSpaceOnUse" x="11.632" y="6.95" width="998.053" height="998.025">
					
						<feColorMatrix  type="matrix" values="-1 0 0 0 1  0 -1 0 0 1  0 0 -1 0 1  0 0 0 1 0" color-interpolation-filters="sRGB" result="source"/>
				</filter>
			</defs>
			<mask maskUnits="userSpaceOnUse" x="11.632" y="6.95" width="998.053" height="998.025" id="SVGID_2_">
				<g filter="url(#Adobe_OpacityMaskFilter)">
					
						<image overflow="visible" width="1003" height="1003" xlink:href="74FB42086FFB74F5.jpg"  transform="matrix(1 0 0 1 9.5 4.5)">
					</image>
				</g>
			</mask>
			<g opacity="0.2" mask="url(#SVGID_2_)">
				<g>
					<path fill="#FFFFFF" d="M537.926,7.714C404.851,0.436,276.912,45.389,177.607,134.299
						C78.328,223.285,19.681,345.526,12.398,478.62c-7.291,133.176,37.65,261.088,126.619,360.379
						c88.998,99.298,211.261,157.944,344.333,165.211c133.066,7.287,261.083-37.622,360.347-126.577
						c99.238-89.025,157.939-211.271,165.223-344.437c7.295-133.102-37.705-261.021-126.627-360.307
						C793.324,73.674,670.986,15.016,537.926,7.714L537.926,7.714z"/>
				</g>
			</g>
		</g>
		<g>
			<path fill="#FFFFFF" d="M693.606,333.722l34.342-52.134l-96.061-63.299l-34.325,52.169
				c-88.337-32.453-188.031-12.267-256.815,51.9l81.647,53.899c51.124-35.181,120.607-38.043,175.553-1.8
				c72.216,47.658,92.204,145.167,44.482,217.526c-47.563,72.178-145.166,92.228-217.438,44.601
				c-55.136-36.42-79.785-101.75-67.24-162.841l-81.556-53.812c-32.712,89.742-11.168,191.214,55.483,259.869l-34.321,52.089
				l96.177,63.298l35.107-53.423c105.864,37.217,227.265-0.587,291.82-98.475C785.677,544.398,771.555,416.295,693.606,333.722z"/>
		</g>
	</g>
</g>
</svg>
