<?xml version="1.0" encoding="utf-8"?>
<!-- Generator: Adobe Illustrator 21.1.0, SVG Export Plug-In . SVG Version: 6.00 Build 0)  -->
<svg version="1.1" id="Ebene_1" xmlns="http://www.w3.org/2000/svg" xmlns:xlink="http://www.w3.org/1999/xlink" x="0px" y="0px"
	 viewBox="0 0 841.9 841.9" style="enable-background:new 0 0 841.9 841.9;" xml:space="preserve">
<style type="text/css">
	.st0{fill:#3B3B3C;}
</style>
<g>
	<g>
		<path class="st0" d="M297.6,659.8C163.2,659.8,52.2,550.4,50.1,416c-2.1-136.5,107.2-249.3,243.8-251.5l3.9,0
			c134.4,0,245.5,109.4,247.6,243.8c2.1,136.5-107.2,249.4-243.8,251.5L297.6,659.8z M297.8,180.5l-3.7,0
			c-127.7,2-230,107.6-228,235.3c2,125.7,105.8,228.1,231.5,228.1l3.7,0c127.7-2,230-107.5,228-235.3
			C527.4,282.8,423.5,180.5,297.8,180.5z"/>
		<path class="st0" d="M297.6,666.6L297.6,666.6c-138.1,0-252.2-112.4-254.3-250.5c-2.2-140.3,110.2-256.2,250.5-258.4l4,0
			c138.1,0,252.3,112.4,254.4,250.5c2.2,140.3-110.2,256.2-250.5,258.4L297.6,666.6z M297.8,171.3l-3.9,0
			c-132.7,2.1-239.1,111.8-237,244.6c2,130.7,110,237.1,240.7,237.1l4,0c132.7-2.1,239.1-111.8,237-244.6
			C536.5,277.7,428.5,171.3,297.8,171.3z M297.6,650.6c-129.5,0-236.4-105.3-238.4-234.8C57.2,284.4,162.5,175.8,294,173.7l3.8,0
			c129.4,0,236.4,105.3,238.4,234.8c2,131.5-103.3,240.1-234.7,242.2L297.6,650.6z M297.8,187.3l-3.6,0
			c-123.9,2-223.2,104.4-221.3,228.4C74.8,537.7,175.6,637,297.6,637l3.7,0c123.9-1.9,223.2-104.4,221.3-228.4
			C520.6,286.6,419.8,187.3,297.8,187.3z"/>
	</g>
</g>
<g>
	<g>
		<path class="st0" d="M297.9,430.4c-4.4,0-8-3.6-8-8L289.5,252c0-4.4,3.6-8,8-8h0c4.4,0,8,3.6,8,8l0.5,170.4
			C305.9,426.8,302.4,430.4,297.9,430.4L297.9,430.4z"/>
		<path class="st0" d="M298,437.2L298,437.2c-8.2,0-14.8-6.6-14.8-14.8L282.7,252c0-3.9,1.5-7.7,4.3-10.5c2.8-2.8,6.5-4.4,10.4-4.4
			c8.2,0,14.8,6.6,14.8,14.8l0.5,170.4c0,3.9-1.5,7.7-4.3,10.5C305.6,435.6,301.9,437.2,298,437.2L298,437.2z M297.5,250.8
			c-0.4,0-0.7,0.2-0.8,0.4c-0.2,0.2-0.3,0.4-0.3,0.8l0.5,170.4c0,0.7,0.5,1.2,1.2,1.2h0c0.4,0,0.7-0.2,0.8-0.4
			c0.2-0.2,0.3-0.4,0.3-0.8L298.6,252C298.6,251.3,298.1,250.8,297.5,250.8z"/>
	</g>
</g>
<g>
	<g>
		<path class="st0" d="M293.6,426.2c0-4.4,2.7-8,6-8l128.6-0.5c3.3,0,6,3.6,6,8v0c0,4.4-2.7,8-6,8l-128.6,0.5
			C296.3,434.2,293.6,430.6,293.6,426.2L293.6,426.2z"/>
		<path class="st0" d="M299.6,441c-3.1,0-6.1-1.3-8.4-3.6c-2.8-2.8-4.4-6.9-4.4-11.2v0c0-8.3,5.6-14.8,12.8-14.8l128.6-0.5
			c3,0.1,6.1,1.2,8.4,3.6c2.8,2.8,4.4,6.9,4.4,11.2c0,8.3-5.6,14.8-12.8,14.8L299.6,441C299.7,441,299.6,441,299.6,441z
			 M299.6,427.4C299.6,427.4,299.6,427.4,299.6,427.4L299.6,427.4z M300.6,425c-0.1,0.3-0.2,0.7-0.2,1.2v0c0,0.5,0.1,0.9,0.2,1.2
			l126.7-0.5c0.1-0.3,0.2-0.7,0.2-1.2c0-0.5-0.1-0.9-0.2-1.2L300.6,425z M428.3,424.5L428.3,424.5L428.3,424.5z"/>
	</g>
</g>
</svg>
