<?xml version="1.0" encoding="utf-8"?>
<!-- Generator: Adobe Illustrator 21.1.0, SVG Export Plug-In . SVG Version: 6.00 Build 0)  -->
<svg version="1.1"
	 id="Ebene_1" xmlns:cc="http://creativecommons.org/ns#" xmlns:dc="http://purl.org/dc/elements/1.1/" xmlns:rdf="http://www.w3.org/1999/02/22-rdf-syntax-ns#" xmlns:svg="http://www.w3.org/2000/svg"
	 xmlns="http://www.w3.org/2000/svg" xmlns:xlink="http://www.w3.org/1999/xlink" x="0px" y="0px" viewBox="0 0 841.9 841.9"
	 style="enable-background:new 0 0 841.9 841.9;" xml:space="preserve">
<style type="text/css">
	.st0{fill:#3B3B3C;}
</style>
<path class="st0" d="M550.2,415C548,276.9,433.9,164.5,295.8,164.5l-4,0C151.5,166.7,39.1,282.7,41.3,422.9
	c2.1,138.1,116.2,250.5,254.3,250.5h0l4.1,0C440,671.2,552.4,555.3,550.2,415z M426.4,447.3l-128.6,0.5c0,0,0,0-0.1,0
	c-3.1,0-6.1-1.3-8.4-3.6c-1-1-1.9-2.2-2.6-3.5c-3.4-2.7-5.5-6.8-5.5-11.5l-0.5-170.4c0-3.9,1.5-7.7,4.3-10.5
	c2.8-2.8,6.5-4.4,10.4-4.4c8.2,0,14.8,6.6,14.8,14.8l0.4,159.4l115.5-0.4c3,0.1,6.1,1.2,8.4,3.6c2.8,2.8,4.4,6.9,4.4,11.2
	C439.2,440.8,433.5,447.3,426.4,447.3z"/>
</svg>
