<?xml version="1.0" encoding="utf-8"?>
<!-- Generator: Adobe Illustrator 21.1.0, SVG Export Plug-In . SVG Version: 6.00 Build 0)  -->
<svg version="1.1" id="Ebene_1" xmlns="http://www.w3.org/2000/svg" xmlns:xlink="http://www.w3.org/1999/xlink" x="0px" y="0px"
	 viewBox="0 0 841.9 841.9" style="enable-background:new 0 0 841.9 841.9;" xml:space="preserve">
<style type="text/css">
	.st0{fill:#3B3B3C;}
</style>
<path id="polygon7" class="st0" d="M476.7,262.1C409.6,185.3,282.6,181,282.6,181s0,109.3,0,148.7c0,117.5-0.4,118.1,118.2,118.1
	c39.4,0,136,0,136,0S543.8,339,476.7,262.1z"/>
<g>
	<g>
		<path class="st0" d="M297.5,666.6C163.1,666.6,52.1,557.3,50,422.8c-2.1-136.5,107.2-249.3,243.8-251.5l3.9,0
			c134.4,0,245.5,109.4,247.6,243.8c2.1,136.5-107.2,249.4-243.8,251.5L297.5,666.6z M297.7,187.3l-3.7,0
			c-127.7,2-230,107.6-228,235.3c2,125.7,105.8,228.1,231.5,228.1l3.7,0c127.7-2,230-107.5,228-235.3
			C527.3,289.6,423.4,187.3,297.7,187.3z"/>
		<path class="st0" d="M297.5,673.4L297.5,673.4c-138.1,0-252.2-112.4-254.3-250.5C41,282.7,153.3,166.7,293.6,164.5l4,0
			c138.1,0,252.3,112.4,254.4,250.5c2.2,140.3-110.2,256.2-250.5,258.4L297.5,673.4z M297.7,178.1l-3.9,0
			C161,180.2,54.7,290,56.8,422.7c2,130.7,110,237.1,240.7,237.1l4,0c132.7-2.1,239.1-111.8,237-244.6
			C536.4,284.5,428.4,178.1,297.7,178.1z M297.5,657.4c-129.5,0-236.4-105.3-238.4-234.8c-2.1-131.5,103.2-240.1,234.7-242.2l3.8,0
			c129.4,0,236.4,105.3,238.4,234.8c2,131.5-103.3,240.1-234.7,242.2L297.5,657.4z M297.7,194.1l-3.6,0
			c-123.9,2-223.2,104.4-221.3,228.4c1.9,122.1,102.7,221.4,224.7,221.4l3.7,0c123.9-1.9,223.2-104.4,221.3-228.4
			C520.5,293.4,419.7,194.1,297.7,194.1z"/>
	</g>
</g>
<g>
	<g>
		<path class="st0" d="M297.8,437.2c-4.4,0-8-3.6-8-8l-0.5-170.4c0-4.4,3.6-8,8-8h0c4.4,0,8,3.6,8,8l0.5,170.4
			C305.8,433.6,302.3,437.2,297.8,437.2L297.8,437.2z"/>
		<path class="st0" d="M297.9,444L297.9,444c-8.2,0-14.8-6.6-14.8-14.8l-0.5-170.4c0-3.9,1.5-7.7,4.3-10.5c2.8-2.8,6.5-4.4,10.4-4.4
			c8.2,0,14.8,6.6,14.8,14.8l0.5,170.4c0,3.9-1.5,7.7-4.3,10.5C305.5,442.4,301.8,444,297.9,444L297.9,444z M297.4,257.6
			c-0.4,0-0.7,0.2-0.8,0.4c-0.2,0.2-0.3,0.4-0.3,0.8l0.5,170.4c0,0.7,0.5,1.2,1.2,1.2h0c0.4,0,0.7-0.2,0.8-0.4
			c0.2-0.2,0.3-0.4,0.3-0.8l-0.5-170.4C298.5,258.1,298,257.6,297.4,257.6z"/>
	</g>
</g>
<g>
	<g>
		<path class="st0" d="M293.5,433c0-4.4,2.7-8,6-8l128.6-0.5c3.3,0,6,3.6,6,8v0c0,4.4-2.7,8-6,8L299.6,441
			C296.2,441,293.5,437.4,293.5,433L293.5,433z"/>
		<path class="st0" d="M299.5,447.8c-3.1,0-6.1-1.3-8.4-3.6c-2.8-2.8-4.4-6.9-4.4-11.2v0c0-8.3,5.6-14.8,12.8-14.8l128.6-0.5
			c3,0.1,6.1,1.2,8.4,3.6c2.8,2.8,4.4,6.9,4.4,11.2c0,8.3-5.6,14.8-12.8,14.8L299.5,447.8C299.6,447.8,299.5,447.8,299.5,447.8z
			 M299.5,434.2C299.5,434.2,299.5,434.2,299.5,434.2L299.5,434.2z M300.5,431.8c-0.1,0.3-0.2,0.7-0.2,1.2v0c0,0.5,0.1,0.9,0.2,1.2
			l126.7-0.5c0.1-0.3,0.2-0.7,0.2-1.2c0-0.5-0.1-0.9-0.2-1.2L300.5,431.8z M428.2,431.3L428.2,431.3L428.2,431.3z"/>
	</g>
</g>
</svg>
