<?xml version="1.0" encoding="utf-8"?>
<!-- Generator: Adobe Illustrator 21.1.0, SVG Export Plug-In . SVG Version: 6.00 Build 0)  -->
<svg version="1.1" id="Ebene_1" xmlns="http://www.w3.org/2000/svg" xmlns:xlink="http://www.w3.org/1999/xlink" x="0px" y="0px"
	 viewBox="0 0 841.9 841.9" style="enable-background:new 0 0 841.9 841.9;" xml:space="preserve">
<style type="text/css">
	.st0{fill:#3B3B3C;}
</style>
<path class="st0" d="M465.2,612.1c0,0,76.2-122.7,68.8-189.3s-55.7-175.5-55.7-175.5l-180.7-72.1v247.6v247.7L465.2,612.1z"/>
<g>
	<g>
		<path class="st0" d="M297.6,670.5c-134.4,0-245.4-109.4-247.5-243.8c-2.1-136.5,107.2-249.3,243.8-251.5l3.9,0
			c134.4,0,245.5,109.4,247.6,243.8c2.1,136.5-107.2,249.4-243.8,251.5L297.6,670.5z M297.8,191.2l-3.7,0
			c-127.7,2-230,107.6-228,235.3c2,125.7,105.8,228.1,231.5,228.1l3.7,0c127.7-2,230-107.5,228-235.3
			C527.4,293.5,423.5,191.2,297.8,191.2z"/>
		<path class="st0" d="M297.6,677.3L297.6,677.3c-138.1,0-252.2-112.4-254.3-250.5c-2.2-140.3,110.2-256.2,250.5-258.4l4,0
			c138.1,0,252.3,112.4,254.4,250.5c2.2,140.3-110.2,256.2-250.5,258.4L297.6,677.3z M297.8,182l-3.9,0
			c-132.7,2.1-239.1,111.8-237,244.6c2,130.7,110,237.1,240.7,237.1l4,0c132.7-2.1,239.1-111.8,237-244.6
			C536.5,288.3,428.5,182,297.8,182z M297.6,661.3C168.2,661.3,61.3,556,59.2,426.6C57.2,295.1,162.5,186.5,294,184.4l3.8,0
			c129.4,0,236.4,105.3,238.4,234.8c2,131.5-103.3,240.1-234.7,242.2L297.6,661.3z M297.8,198l-3.6,0
			C170.2,200,70.9,302.4,72.9,426.4c1.9,122.1,102.7,221.4,224.7,221.4l3.7,0c123.9-1.9,223.2-104.4,221.3-228.4
			C520.6,297.3,419.8,198,297.8,198z"/>
	</g>
</g>
</svg>
