<?xml version="1.0" encoding="utf-8"?>
<!-- Generator: Adobe Illustrator 21.1.0, SVG Export Plug-In . SVG Version: 6.00 Build 0)  -->
<svg version="1.1" id="Ebene_1" xmlns="http://www.w3.org/2000/svg" xmlns:xlink="http://www.w3.org/1999/xlink" x="0px" y="0px"
	 viewBox="0 0 841.9 841.9" style="enable-background:new 0 0 841.9 841.9;" xml:space="preserve">
<style type="text/css">
	.st0{fill:#3B3B3C;}
</style>
<path class="st0" d="M478.3,253.4c-53.8-58.5-146.7-67.3-173.4-68.6c0,10.9,0,64.1,0,104.1c0.3,1.1,0.5,2.2,0.5,3.4l0.5,127
	c0.1,0.8,0.2,1.6,0.2,2.4v0v0c0,8.1-6.6,14.8-14.8,14.8l-62,0.2c-12.1,0.3-26.2,0.3-42.5,0.3c-27.4,0-88.8,0-123.5,0
	c5.1,36.9,20.6,126.5,53.7,151.5c42,31.8,111.8,76.1,180.6,68.8c68.8-7.3,115.2,1.6,167.6-55.7c52.4-57.3,68.8-180.7,68.8-180.7
	S541.6,322.2,478.3,253.4z"/>
<g>
	<g>
		<path class="st0" d="M295.6,667.4C161.3,667.4,50.2,558,48.1,423.6C46,287.1,155.3,174.3,291.9,172.1l3.9,0
			c134.4,0,245.5,109.4,247.6,243.8c2.1,136.5-107.2,249.4-243.8,251.5L295.6,667.4z M295.8,188l-3.7,0
			c-127.7,2-230,107.6-228,235.3c2,125.7,105.8,228.1,231.5,228.1l3.7,0c127.7-2,230-107.5,228-235.3
			C525.4,290.4,421.5,188,295.8,188z"/>
		<path class="st0" d="M295.7,674.2L295.7,674.2c-138.1,0-252.2-112.4-254.3-250.5c-2.2-140.3,110.2-256.2,250.5-258.4l4,0
			c138.1,0,252.3,112.4,254.4,250.5C552.4,556.1,440,672,299.7,674.2L295.7,674.2z M295.8,178.9l-3.9,0
			C159.2,181,52.9,290.7,54.9,423.5c2,130.7,110,237.1,240.7,237.1l4,0c132.7-2.1,239.1-111.8,237-244.6
			C534.5,285.2,426.5,178.9,295.8,178.9z M295.7,658.2c-129.5,0-236.4-105.3-238.4-234.8C55.2,292,160.5,183.3,292,181.3l3.8,0
			c129.4,0,236.4,105.3,238.4,234.8c2,131.5-103.3,240.1-234.7,242.2L295.7,658.2z M295.8,194.9l-3.6,0
			C168.3,196.8,69,299.3,70.9,423.2c1.9,122.1,102.7,221.4,224.7,221.4l3.7,0c123.9-1.9,223.2-104.4,221.3-228.4
			C518.7,294.2,417.9,194.9,295.8,194.9z"/>
	</g>
</g>
</svg>
