<?xml version="1.0" encoding="utf-8"?>
<!-- Generator: Adobe Illustrator 21.1.0, SVG Export Plug-In . SVG Version: 6.00 Build 0)  -->
<svg version="1.1" id="Ebene_1" xmlns="http://www.w3.org/2000/svg" xmlns:xlink="http://www.w3.org/1999/xlink" x="0px" y="0px"
	 viewBox="0 0 841.9 595.3" style="enable-background:new 0 0 841.9 595.3;" xml:space="preserve">
<style type="text/css">
	.st0{fill:#3B3B3C;}
</style>
<g>
	
		<rect x="117.7" y="330.4" transform="matrix(0.5494 -0.8356 0.8356 0.5494 -147.7256 414.0448)" class="st0" width="384.6" height="27.3"/>
</g>
<g>
	<path class="st0" d="M566.3,330.5c-4.2,0-8.4-1.9-11-5.6c-0.4-0.6-45.7-61.6-148.6-129.3c-108.5-71.3-176.4-84.9-177.1-85.1
		c-7.4-1.4-12.2-8.5-10.8-15.9c1.4-7.4,8.5-12.2,15.9-10.9c2.9,0.6,73.4,14.4,187,89.1c107.4,70.6,153.7,133.4,155.6,136
		c4.4,6.1,3.1,14.6-3,19C571.9,329.6,569.1,330.5,566.3,330.5z"/>
</g>
<g>
	
		<rect x="367" y="171.2" transform="matrix(0.8356 0.5494 -0.5494 0.8356 177.1866 -188.9699)" class="st0" width="74.5" height="60.6"/>
</g>
<g>
	<path class="st0" d="M543.7,225.8c-2.5,0-4.9-0.8-7-2.4c-5.1-3.9-6.2-11.2-2.3-16.4l42-55.5c3.9-5.1,11.2-6.1,16.4-2.3
		c5.1,3.9,6.2,11.2,2.3,16.4l-42,55.5C550.7,224.3,547.2,225.8,543.7,225.8z"/>
</g>
<g>
	<path class="st0" d="M592,277.7c-3.7,0-7.3-1.7-9.6-5c-3.7-5.3-2.4-12.6,2.9-16.3l44.3-31.1c5.3-3.7,12.6-2.4,16.3,2.9
		c3.7,5.3,2.4,12.6-2.9,16.3l-44.3,31.1C596.7,277,594.3,277.7,592,277.7z"/>
</g>
</svg>
