<?xml version="1.0" encoding="utf-8"?>
<!-- Generator: Adobe Illustrator 21.1.0, SVG Export Plug-In . SVG Version: 6.00 Build 0)  -->
<svg version="1.1" id="Ebene_1" xmlns="http://www.w3.org/2000/svg" xmlns:xlink="http://www.w3.org/1999/xlink" x="0px" y="0px"
	 viewBox="0 0 24 24" style="enable-background:new 0 0 24 24;" xml:space="preserve">
<style type="text/css">
	.st0{fill:#3B3B3C;}
</style>
<g>
	<g>
		<g>
			<polygon class="st0" points="20,19.1 3.5,19.1 3.5,5 9,5 9,5.6 4,5.6 4,18.6 19.5,18.6 19.5,5.6 14.3,5.6 14.3,5 20,5 			"/>
			<path class="st0" d="M20.2,19.4H3.3V4.8h6v1h-5v12.6h15V5.8H14v-1h6.2V19.4z M3.7,18.9h16V5.3h-5.3v0.1h5.2v13.5L3.7,18.9
				L3.8,5.3h5V5.3H3.7V18.9z"/>
		</g>
	</g>
	<g>
		<g>
			<g>
				<path class="st0" d="M11.6,12.3c-0.1,0-0.1,0-0.2-0.1c-0.1-0.1-0.1-0.3,0-0.4l3.8-3.9c0.1-0.1,0.3-0.1,0.4,0
					c0.1,0.1,0.1,0.3,0,0.4l-3.8,3.9C11.7,12.2,11.6,12.3,11.6,12.3z"/>
				<path class="st0" d="M11.6,12.5c-0.1,0-0.3-0.1-0.4-0.1c-0.2-0.2-0.2-0.5,0-0.7L15,7.8c0.1-0.1,0.2-0.1,0.4-0.1c0,0,0,0,0,0
					c0.1,0,0.3,0.1,0.3,0.1c0.1,0.1,0.1,0.2,0.1,0.4c0,0.1-0.1,0.3-0.1,0.4l-3.8,3.9C11.8,12.4,11.7,12.5,11.6,12.5z M15.4,8.1
					L15.4,8.1C15.4,8.1,15.4,8.1,15.4,8.1L11.5,12c0,0,0,0,0,0c0,0,0,0,0,0L15.4,8.1C15.4,8.2,15.4,8.1,15.4,8.1
					C15.4,8.1,15.4,8.1,15.4,8.1C15.4,8.1,15.4,8.1,15.4,8.1z"/>
			</g>
		</g>
		<g>
			<g>
				<path class="st0" d="M11.6,12.3c-0.1,0-0.1,0-0.2-0.1L7.6,8.4C7.5,8.2,7.5,8.1,7.6,8C7.7,7.9,7.9,7.9,8,8l3.8,3.8
					c0.1,0.1,0.1,0.3,0,0.4C11.7,12.2,11.6,12.3,11.6,12.3z"/>
				<path class="st0" d="M11.6,12.5c-0.1,0-0.3-0.1-0.4-0.1L7.4,8.5C7.3,8.4,7.3,8.3,7.3,8.2c0-0.1,0.1-0.3,0.1-0.4
					c0.1-0.1,0.2-0.1,0.4-0.1c0.1,0,0.3,0.1,0.4,0.1l3.8,3.8c0.1,0.1,0.1,0.2,0.1,0.4c0,0.1-0.1,0.3-0.1,0.4
					C11.8,12.4,11.7,12.5,11.6,12.5z M7.8,8.1C7.8,8.1,7.8,8.1,7.8,8.1C7.7,8.2,7.7,8.2,7.8,8.1C7.7,8.2,7.7,8.2,7.8,8.1l3.8,3.9
					c0,0,0,0,0,0c0,0,0,0,0,0c0,0,0,0,0,0L7.8,8.1C7.8,8.1,7.8,8.1,7.8,8.1L7.8,8.1z"/>
			</g>
		</g>
		<g>
			<g>
				<path class="st0" d="M11.6,11.8c-0.1,0-0.3-0.1-0.3-0.3l0-8.8c0-0.1,0.1-0.3,0.3-0.3c0.1,0,0.3,0.1,0.3,0.3l0,8.8
					C11.8,11.7,11.7,11.8,11.6,11.8C11.6,11.8,11.6,11.8,11.6,11.8z"/>
				<path class="st0" d="M11.6,12L11.6,12c-0.3,0-0.5-0.2-0.5-0.5l0-8.8c0-0.1,0.1-0.3,0.2-0.4c0.1-0.1,0.2-0.1,0.3-0.1
					c0.3,0,0.5,0.2,0.5,0.5l0,8.8c0,0.1-0.1,0.3-0.1,0.4C11.8,12,11.7,12,11.6,12z M11.5,2.7C11.5,2.7,11.5,2.7,11.5,2.7l0,8.9
					c0,0,0,0,0,0h0c0,0,0,0,0,0c0,0,0,0,0,0L11.5,2.7C11.6,2.7,11.6,2.7,11.5,2.7L11.5,2.7z"/>
			</g>
		</g>
	</g>
</g>
</svg>
