<?xml version="1.0" encoding="utf-8"?>
<!-- Generator: Adobe Illustrator 21.1.0, SVG Export Plug-In . SVG Version: 6.00 Build 0)  -->
<svg version="1.1" id="Ebene_1" xmlns="http://www.w3.org/2000/svg" xmlns:xlink="http://www.w3.org/1999/xlink" x="0px" y="0px"
	 viewBox="0 0 24 24" style="enable-background:new 0 0 24 24;" xml:space="preserve">
<style type="text/css">
	.st0{fill:#3B3B3C;}
</style>
<g>
	<g>
		<polygon class="st0" points="19.6,20.4 4.4,20.4 4.4,9.1 9.5,9.1 9.5,9.6 4.9,9.6 4.9,20 19.1,20 19.1,9.6 14.3,9.6 14.3,9.1 
			19.6,9.1 		"/>
		<path class="st0" d="M19.8,20.7H4.2V8.9h5.5v0.9H5.1v9.9h13.8V9.8h-4.8V8.9h5.7V20.7z M4.6,20.2h14.7V9.3h-4.8v0h4.8v10.8
			L4.6,20.2l0-10.9h4.6v0H4.6V20.2z"/>
	</g>
</g>
<g>
	<g>
		<path class="st0" d="M11.8,15.5c-0.1,0-0.1,0-0.2-0.1c-0.1-0.1-0.1-0.3,0-0.3l3.5-3.6c0.1-0.1,0.3-0.1,0.3,0
			c0.1,0.1,0.1,0.3,0,0.3L12,15.4C12,15.4,11.9,15.5,11.8,15.5z"/>
		<path class="st0" d="M11.8,15.7c-0.1,0-0.2,0-0.3-0.1c-0.1-0.1-0.1-0.2-0.1-0.3s0-0.2,0.1-0.3l3.5-3.6c0.1-0.1,0.2-0.1,0.3-0.1
			c0,0,0,0,0,0c0.1,0,0.2,0,0.3,0.1c0.2,0.2,0.2,0.5,0,0.7l-3.5,3.6C12.1,15.6,12,15.7,11.8,15.7z M15.3,11.6L15.3,11.6
			C15.3,11.6,15.3,11.6,15.3,11.6l-3.5,3.6c0,0,0,0,0,0c0,0,0,0,0,0L15.3,11.6C15.4,11.7,15.4,11.7,15.3,11.6
			C15.4,11.6,15.4,11.6,15.3,11.6z"/>
	</g>
</g>
<g>
	<g>
		<path class="st0" d="M11.8,15.5c-0.1,0-0.1,0-0.2-0.1l-3.5-3.5c-0.1-0.1-0.1-0.3,0-0.3c0.1-0.1,0.3-0.1,0.3,0L12,15
			c0.1,0.1,0.1,0.3,0,0.3C12,15.4,11.9,15.5,11.8,15.5z"/>
		<path class="st0" d="M11.8,15.7c-0.1,0-0.2,0-0.3-0.1L8,12c-0.1-0.1-0.1-0.2-0.1-0.3c0-0.1,0-0.2,0.1-0.3c0.2-0.2,0.5-0.2,0.7,0
			l3.5,3.5c0.1,0.1,0.1,0.2,0.1,0.3c0,0.1-0.1,0.2-0.1,0.3C12.1,15.6,12,15.7,11.8,15.7z M8.3,11.7C8.3,11.7,8.3,11.7,8.3,11.7
			C8.3,11.7,8.3,11.7,8.3,11.7l3.5,3.6c0,0,0,0,0,0c0,0,0,0,0,0L8.3,11.7C8.4,11.7,8.3,11.7,8.3,11.7z"/>
	</g>
</g>
<g>
	<g>
		<path class="st0" d="M11.8,14.5c-0.1,0-0.2-0.1-0.2-0.3l0-9.9c0-0.2,0.1-0.3,0.2-0.3c0.1,0,0.2,0.1,0.2,0.3l0,9.9
			C12.1,14.3,12,14.5,11.8,14.5C11.8,14.5,11.8,14.5,11.8,14.5z"/>
		<path class="st0" d="M11.8,14.7L11.8,14.7c-0.3,0-0.5-0.2-0.5-0.5l0-9.9c0-0.2,0.1-0.3,0.2-0.4c0.1-0.1,0.2-0.1,0.3-0.1
			c0.3,0,0.5,0.2,0.5,0.5l0,9.9c0,0.1,0,0.3-0.1,0.4C12.1,14.6,12,14.7,11.8,14.7z M11.8,4.2C11.8,4.2,11.8,4.2,11.8,4.2l0,10
			c0,0,0,0.1,0,0.1c0,0,0,0,0-0.1L11.8,4.2C11.8,4.2,11.8,4.2,11.8,4.2z M11.8,4.2C11.8,4.2,11.8,4.2,11.8,4.2L11.8,4.2z"/>
	</g>
</g>
<g>
	<g>
		<g>
			<path class="st0" d="M11.8,3.5c0.1,0,0.1,0,0.2,0.1c0.1,0.1,0.1,0.3,0,0.3L8.5,7.5c-0.1,0.1-0.3,0.1-0.3,0
				c-0.1-0.1-0.1-0.3,0-0.3l3.5-3.6C11.7,3.6,11.8,3.5,11.8,3.5z"/>
			<path class="st0" d="M8.3,7.8c-0.1,0-0.2,0-0.3-0.1C7.8,7.5,7.8,7.2,8,7l3.5-3.6c0.2-0.2,0.5-0.2,0.7,0c0.1,0.1,0.1,0.2,0.1,0.3
				c0,0.1,0,0.2-0.1,0.3L8.7,7.7C8.6,7.8,8.4,7.8,8.3,7.8C8.3,7.8,8.3,7.8,8.3,7.8z M11.8,3.8C11.8,3.8,11.8,3.8,11.8,3.8L8.3,7.3
				c0,0,0,0,0,0c0,0,0,0,0,0L11.8,3.8C11.9,3.8,11.9,3.8,11.8,3.8C11.8,3.8,11.8,3.8,11.8,3.8z"/>
		</g>
	</g>
	<g>
		<g>
			<path class="st0" d="M11.8,3.5c0.1,0,0.1,0,0.2,0.1l3.5,3.5c0.1,0.1,0.1,0.3,0,0.3c-0.1,0.1-0.3,0.1-0.3,0L11.7,4
				c-0.1-0.1-0.1-0.3,0-0.3C11.7,3.6,11.8,3.5,11.8,3.5z"/>
			<path class="st0" d="M15.3,7.8C15.3,7.8,15.3,7.8,15.3,7.8c-0.1,0-0.2-0.1-0.3-0.1l-3.5-3.5c-0.1-0.1-0.1-0.2-0.1-0.3
				c0-0.1,0-0.2,0.1-0.3c0.2-0.2,0.5-0.2,0.7,0L15.7,7c0.2,0.2,0.2,0.5,0,0.7C15.6,7.7,15.4,7.8,15.3,7.8z M11.8,3.8
				C11.8,3.8,11.8,3.8,11.8,3.8C11.8,3.8,11.8,3.8,11.8,3.8l3.5,3.6c0,0,0,0,0,0c0,0,0,0,0,0L11.8,3.8C11.8,3.8,11.8,3.8,11.8,3.8z"
				/>
		</g>
	</g>
</g>
</svg>
