<?xml version="1.0" encoding="utf-8"?>
<!-- Generator: Adobe Illustrator 21.1.0, SVG Export Plug-In . SVG Version: 6.00 Build 0)  -->
<svg version="1.1" id="Ebene_1" xmlns="http://www.w3.org/2000/svg" xmlns:xlink="http://www.w3.org/1999/xlink" x="0px" y="0px"
	 viewBox="0 0 841.9 595.3" style="enable-background:new 0 0 841.9 595.3;" xml:space="preserve">
<style type="text/css">
	.st0{fill:#333333;}
</style>
<path class="st0" d="M624.2,352.9L453.7,523.4l-78.2-78.2l20-20l58.1,57.9l150.5-150.3L624.2,352.9z"/>
<g>
	<path class="st0" d="M208.5,455.6l197.7-198.2c0.4,30.8,19.1,59.1,48.7,70.7c19.2,7.6,40.1,7.2,59-1c18.9-8.2,33.5-23.3,41-42.4
		c1.8-4.5,3.1-9.1,4-13.7c4.4-22.9-1.9-45.8-15.8-63c4.3-2.1,8.4-4.6,12.2-7.7c11.3-9.3,18.9-22.1,21.7-37
		c4.2-21.6-1.9-44.5-16.8-62.6c-12.3-15-29.1-24.9-47.3-27.9c-19-3.1-37.2,1.6-51.3,13.1c-5.5,4.5-10,9.8-13.6,15.8
		c-7.5-7.7-16.4-14.1-26.9-18.3c-39.5-15.6-89.6,0.5-105.2,40c-1.8,4.4-4.1,11.7-4.6,16.4l0,0c-4.3,36.8,15.8,73.1,50.3,86.7
		c8.2,3.2,18.1,4.8,26.4,5.2L280.2,340.3l-35.6-38.8l-31.5,30.1l18.1,18.8l-29,27.7l-18-18.9l-35.3,33.6l54.4,57.2L208.5,455.6z
		 M480.8,109.3c7.3-6,17-8.4,27.3-6.7c11,1.8,21.3,7.9,28.9,17.2c9,11,13,25.2,10.5,37.8c-1.5,7.9-5.4,14.6-11.3,19.4
		c-15.7,12.9-40.9,8.1-56.2-10.6C465.4,148.5,465.6,121.7,480.8,109.3z M375.7,198.9c-23.7-9.4-35.9-37-26.5-60.9
		c9.5-24.1,36.8-36,60.9-26.5c21,8.3,33.2,30.4,28.9,52.6c-0.6,2.9-1.4,5.7-2.4,8.4C427.1,196.5,399.8,208.4,375.7,198.9z
		 M439.5,239.2c4.6-11.7,13.5-20.9,25-25.9c11.5-5,24.3-5.2,35.9-0.6c21,8.3,33.2,30.4,28.9,52.6c-0.5,2.8-1.4,5.6-2.4,8.4
		c-4.6,11.6-13.5,20.9-25,25.8c-11.5,5-24.3,5.2-35.9,0.6C442.3,290.7,430.1,263.1,439.5,239.2z"/>
</g>
</svg>
