/* XPM */
static char *ee1c3830e9d144ea81c6fb40c438361b[] = {
/* columns rows colors chars-per-pixel */
"128 128 2 1 ",
"  c #136E75",
". c None",
/* pixels */
"................................................................................................................................",
"................................................................................................................................",
"................................................................................................................................",
"................................................................................................................................",
"................................................................................................................................",
"..............   ..............................................................................................   ..............",
"..............     ..........................................................................................     ..............",
"..  .........      ..........................................................................................      .........  ..",
"..    .......      ..........................................................................................      .......    ..",
".      ......     ..    ...............................................................................     ..     ......      .",
"         ....     ..      ............................................................................      ..     ....         ",
"           ..     ..     ..............................................................................     ..     ..           ",
"..                ..     ..............................................................................     ..                ..",
"....              ..     ..     ................................................................     ..     ..              ....",
".....             ..     ..     ................................................................     ..     ..             .....",
".......          ..      ..     ................................................................     ..      ..          .......",
".........        ..      ..     ................................................................     ..      ..        .........",
"...........      ..     ..      ..     ..................................................     ..      ..     ..      ...........",
"............     ..     ..      .      ..................................................      .      ..     ..     ............",
"...........      ..     ..     ..      ..................................................      ..     ..     ..      ...........",
"...........      ..     ..     ..      ..................................................      ..     ..     ..      ...........",
"...........     ..      ..     ..     ..     ......................................     ..     ..     ..      ..     ...........",
"...........     ..      ..     ..     ..     ......................................     ..     ..     ..      ..     ...........",
"...........     ..     ..      ..     ..     ......................................     ..     ..      ..     ..     ...........",
"...........     ..     ..      .      ..     .. ...............................  ..     ..      .      ..     ..     ...........",
"..........      ..     ..     ..      ..     ..     ........................     ..     ..      ..     ..     ..      ..........",
"..........      ..     ..     ..     ..      ..     ........................     ..      ..     ..     ..     ..      ..........",
"..........     ..      ..     ..     ..      ..     ........................     ..      ..     ..     ..      ..     ..........",
".................      .      ..     ..     ..      ........................      ..     ..     ..      .      .................",
".................     ..      ..     ..     ..      ........................      ..     ..     ..      ..     .................",
".................     ..     ..      ..     ..     ..........................     ..     ..      ..     ..     .................",
".................     ..     ..      ..     ..     ..........................     ..     ..      ..     ..     .................",
"........................     ..     ..      ..     ..........................     ..      ..     ..     ........................",
"........................     ..     ..      ..     ..........................      .      ..     ..     ........................",
".......................      ..     ..     ..      ..........................      ..     ..     ..      .......................",
"........................     ..     ..     ..       ........................       ..     ..     ..     ........................",
"..............................      ..     ..         ....................         ..     ..      ..............................",
"..............................      ..     ..           ................           ..     ..      ..............................",
"..............................     ..      ..            ..............            ..      ..     ..............................",
"...............................    ..      ..              ..........               .      ..    ...............................",
".....................................     ..                 ......                 ..     .....................................",
".....................................     ..      ..          ....          ...     ..     .....................................",
".....................................     ..      ....                     ....     ..     .....................................",
".......................................   ..     .......                 ......     ..   .......................................",
"............................................     .........             ........     ............................................",
"...........................................      ..........           .........      ...........................................",
"...........................................      ............       ...........      ...........................................",
"..............................................  ..............     .............  ..............................................",
"..............................................................     .............................................................",
"..............................................................     .............................................................",
"..............................................................     .............................................................",
"..............................................................     .............................................................",
"..............................................................     .............................................................",
"..............................................................     .............................................................",
"..............................................................     .............................................................",
"..............................................................     .............................................................",
"..............................................................     .............................................................",
"..............................................................     .............................................................",
"..............................................................     .............................................................",
"..............................................................     .............................................................",
"..............................................................     ....... .....................................................",
"..............................................................     ....    .....................................................",
"..............................................................     ..       ....................................................",
"..............................................................              ....................................................",
"..............................................................              ....................................................",
".............................................................              .....................................................",
"..........................................................               .......................................................",
".......................................................               ..........................................................",
".....................................................              ......  .....................................................",
"......................................................           .....     .....................................................",
"......................................................        .....         ....................................................",
"......................................................     ......           ....................................................",
".......................................................  .....              ....................................................",
"...........................................................               ......................................................",
".........................................................               ........................................................",
"......................................................               ...........................................................",
".....................................................             ......   .....................................................",
"......................................................          .....      .....................................................",
"......................................................       ......         ....................................................",
"......................................................    ......            ....................................................",
"....................................................... .....               ....................................................",
"...........................................................               ......................................................",
"........................................................               .........................................................",
".....................................................               ...... .....................................................",
".....................................................             .....    .....................................................",
"......................................................         .....       .....................................................",
"......................................................      ......          ....................................................",
"......................................................    .....             ....................................................",
"............................................................               .....................................................",
"..........................................................               .......................................................",
".......................................................               ..........................................................",
".....................................................              ......  .....................................................",
".....................................................            .....     .....................................................",
"......................................................        ......        ....................................................",
"......................................................     ......           ....................................................",
".......................................................  .....              ....................................................",
"...........................................................                .....................................................",
".........................................................               ........................................................",
"......................................................               ...........................................................",
".....................................................              .....   .....................................................",
"......................................................          .....      .....................................................",
"......................................................       ......         ....................................................",
"......................................................    ......            ....................................................",
"....................................................... .....               ....................................................",
"...........................................................               ......................................................",
"........................................................               .........................................................",
".....................................................                ...........................................................",
".....................................................              .............................................................",
"......................................................             .............................................................",
"......................................................       .     .............................................................",
".......................................................   ....     .............................................................",
"..............................................................     .............................................................",
"..............................................................     .............................................................",
"..............................................................     .............................................................",
"..............................................................     .............................................................",
"..............................................................     .............................................................",
"..............................................................     .............................................................",
"..............................................................     .............................................................",
"..............................................................     .............................................................",
"..............................................................     .............................................................",
"..............................................................     .............................................................",
"................................................................................................................................",
"................................................................................................................................",
"................................................................................................................................",
"................................................................................................................................",
"................................................................................................................................",
"................................................................................................................................",
"................................................................................................................................"
};
