/* XPM */
static char *c8190a2acf154a89ccd6811cd5380d6c[] = {
/* columns rows colors chars-per-pixel */
"64 64 2 1 ",
"  c #136E75",
". c None",
/* pixels */
"................................................................",
"................................................................",
".......  ..............................................  .......",
". .....  ..............................................  ..... .",
"    ..   .   ......................................   .   ..    ",
"         .   ......................................   .         ",
"..       .      ................................      .       ..",
"....     .  .   ................................   .  .     ....",
"......      .   .  ..........................  .   .      ......",
"......  .   .   .  ..........................  .   .   .  ......",
".....   .   .  .   .   ..................   .   .  .   .   .....",
".....   .   .  .   .   ..................   .   .  .   .   .....",
".....   .  .   .   .  .   ............   .  .   .   .  .   .....",
"......  .  .   .   .  .   ............   .  .   .   .  .  ......",
"........   .   .  .   .   ............   .   .  .   .   ........",
".......... .   .  .   .   ............   .   .  .   . ..........",
"............  .   .   .  ..............  .   .   .  ............",
"............. .   .   .    ..........    .   .   . .............",
"...............   .  .      ........      .  .   ...............",
"...................  .        ....        .  ...................",
"..................   .   ..           .   .   ..................",
"......................   ...        ....  ......................",
"......................  ......    ......  ......................",
"...............................   ..............................",
"...............................   ..............................",
"...............................   ..............................",
"...............................   ..............................",
"...............................   ..............................",
"...............................   ..............................",
"...............................   ..............................",
"...............................   .   ..........................",
"...............................       ..........................",
"..............................       ...........................",
"...........................       ..............................",
"...........................     ..    ..........................",
"...........................  ...      ..........................",
".............................        ...........................",
"...........................       ..............................",
"...........................    ...    ..........................",
"...........................  ..       ..........................",
".............................       ............................",
"...........................       .. ...........................",
"...........................    ..     ..........................",
"........................... ...       ..........................",
"............................        ............................",
"...........................      ...  ..........................",
"...........................   ...     ..........................",
"..............................        ..........................",
"............................       .............................",
"...........................      ..   ..........................",
"...........................   ...     ..........................",
"..............................        ..........................",
"...........................        .............................",
"...........................       ..............................",
"...........................   .   ..............................",
"...............................   ..............................",
"...............................   ..............................",
"...............................   ..............................",
"...............................   ..............................",
"...............................   ..............................",
"................................................................",
"................................................................",
"................................................................",
"................................................................"
};
